<?xml version="1.0" encoding="UTF-8"?>
<svg width="26px" height="26px" viewBox="0 0 26 26" version="1.1" xmlns="http://www.w3.org/2000/svg" xmlns:xlink="http://www.w3.org/1999/xlink">
    <!-- Generator: Sketch 49.3 (51167) - http://www.bohemiancoding.com/sketch -->
    <title>D/Icon/Features/Air Conditioning</title>
    <desc>Created with Sketch.</desc>
    <defs></defs>
    <g id="Symbols" stroke="none" stroke-width="1" fill="none" fill-rule="evenodd" stroke-linecap="round" stroke-linejoin="round">
        <g id="Icon/Unique/Air-Conditioning/Grey" transform="translate(-3.000000, -3.000000)" stroke="#A5B2BA">
            <g id="D/Icon/Features/Air-Conditioning" transform="translate(4.000000, 4.000000)">
                <g id="Air-Conditioning">
                    <path d="M12,0 L12,24" id="Imported-Layers"></path>
                    <polyline id="Path" points="14.5578182 2.35781818 12 4.91490909 9.44218182 2.35781818"></polyline>
                    <polyline id="Path" points="14.5578182 21.6421818 12 19.0850909 9.44218182 21.6421818"></polyline>
                    <path d="M24,12 L0,12" id="Path"></path>
                    <polyline id="Path" points="21.6421818 14.5578182 19.0850909 12 21.6421818 9.44218182"></polyline>
                    <polyline id="Path" points="2.35781818 14.5578182 4.91490909 12 2.35781818 9.44218182"></polyline>
                    <path d="M20.4850909,3.51490909 L3.51490909,20.4850909" id="Path"></path>
                    <polyline id="Path" points="20.6269091 6.99054545 17.0094545 6.99054545 17.0094545 3.37309091"></polyline>
                    <polyline id="Path" points="6.99054545 20.6269091 6.99054545 17.0094545 3.37309091 17.0094545"></polyline>
                    <path d="M20.4850909,20.4850909 L11.8791726,11.8791726 L3.51490909,3.51490909" id="Path"></path>
                    <polyline id="Path" points="17.0094545 20.6269091 17.0094545 17.0094545 20.6269091 17.0094545"></polyline>
                    <polyline id="Path" points="3.37309091 6.99054545 6.99054545 6.99054545 6.99054545 3.37309091"></polyline>
                </g>
            </g>
        </g>
    </g>
</svg>