<?xml version="1.0" encoding="UTF-8"?>
<svg width="26px" height="26px" viewBox="0 0 26 26" version="1.1" xmlns="http://www.w3.org/2000/svg" xmlns:xlink="http://www.w3.org/1999/xlink">
    <!-- Generator: Sketch 49.3 (51167) - http://www.bohemiancoding.com/sketch -->
    <title>D/Icon/Features/Alarm System</title>
    <desc>Created with Sketch.</desc>
    <defs></defs>
    <g id="Symbols" stroke="none" stroke-width="1" fill="none" fill-rule="evenodd" stroke-linecap="round" stroke-linejoin="round">
        <g id="Icon/Unique/Alarm-System/Grey" transform="translate(-3.000000, -3.000000)" stroke="#A5B2BA">
            <g id="D/Icon/Features/Alarm-System" transform="translate(4.000000, 4.000000)">
                <g id="Alarm-system">
                    <path d="M16.8174157,3.99089886 C15.3687964,3.11788986 13.6914088,2.65518771 12,2.65518771" id="Alarm-System"></path>
                    <path d="M21.3448123,12.0000001 C21.3455503,10.1905173 20.8142177,8.39948363 19.8216589,6.88518568" id="Path"></path>
                    <path d="M18.7457103,2.07367368 C16.7642824,0.725417172 14.3961625,-0.00073740005 12,5.61913679e-07" id="Path"></path>
                    <path d="M23.9999995,12.0000001 C24.0007375,9.4865016 23.2007867,7.00547348 21.7256007,4.96943642" id="Path"></path>
                    <path d="M7.1825843,3.99089886 C8.63120364,3.11788986 10.3085912,2.65518771 12,2.65518771" id="Path"></path>
                    <path d="M2.65518765,12.0000001 C2.65444969,10.1905173 3.18578231,8.39948363 4.17834115,6.88518568" id="Path"></path>
                    <path d="M5.25428969,2.07367368 C7.2349796,0.725417172 9.6038375,-0.00073740005 12,5.61913679e-07" id="Path"></path>
                    <path d="M5.096547e-07,12.0000001 C-0.000737452309,9.4865016 0.799951278,7.00547348 2.27439928,4.96943642" id="Path"></path>
                    <polyline id="Path" points="18.8291 12.3350348 18.8291 21.6023611 5.17089999 21.6023611 5.17089999 12.3350348"></polyline>
                    <path d="M18.8291,12.3350348 C18.8291,8.56331119 15.7717236,5.50519681 12,5.50519681 C8.2282764,5.50519681 5.17089999,8.56331119 5.17089999,12.3350348" id="Path"></path>
                    <path d="M14.4957874,12.6132464 C14.4957874,11.2354715 13.3785129,10.118197 12,10.118197 C10.6214871,10.118197 9.50421264,11.2354715 9.50421264,12.6132464 C9.50421264,13.5128221 9.98388792,14.2935858 10.6967592,14.7334112 L10.6967592,21.6016232 L13.3032408,21.6016232 L13.3032408,14.7334112 C14.0161121,14.2935858 14.4957874,13.5128221 14.4957874,12.6132464 L14.4957874,12.6132464 Z" id="Path"></path>
                    <path d="M3.66398166,21.6016232 L20.3360183,21.6016232 L3.66398166,21.6016232 Z" id="Path"></path>
                    <path d="M20.3360183,24.3527454 L3.66398166,24.3527454 L20.3360183,24.3527454 Z" id="Path"></path>
                    <path d="M20.3360183,21.5964574 C20.3360183,21.5964574 20.6998336,22.2133936 20.6998336,22.9749704 C20.6998336,23.7358092 20.3360183,24.3527454 20.3360183,24.3527454" id="Path"></path>
                    <path d="M3.66398166,21.5964574 C3.66398166,21.5964574 3.30016641,22.2133936 3.30016641,22.9749704 C3.30016641,23.7358092 3.66398166,24.3527454 3.66398166,24.3527454" id="Path"></path>
                </g>
            </g>
        </g>
    </g>
</svg>