<?xml version="1.0" encoding="UTF-8"?>
<svg width="24px" height="24px" viewBox="0 0 24 24" version="1.1" xmlns="http://www.w3.org/2000/svg" xmlns:xlink="http://www.w3.org/1999/xlink">
    <!-- Generator: Sketch 49.3 (51167) - http://www.bohemiancoding.com/sketch -->
    <title>D/Icon/Features/Built In Robes</title>
    <desc>Created with Sketch.</desc>
    <defs></defs>
    <g id="Symbols" stroke="none" stroke-width="1" fill="none" fill-rule="evenodd" stroke-linecap="round" stroke-linejoin="round">
        <g id="Icon/Unique/Built-In-Robes/Grey" transform="translate(-4.000000, -4.000000)" stroke="#A5B2BA">
            <g id="D/Icon/Features/Built-In-Robes" transform="translate(4.000000, 4.000000)">
                <g id="Built-In-Robes">
                    <path d="M6.34285714,0.685714286 L12,0.685714286 L12,23.3142857 L6.34285714,23.3142857 L6.34285714,0.685714286 Z M0.685714286,0.685714286 L6.34285714,0.685714286 L6.34285714,23.3142857 L0.685714286,23.3142857 L0.685714286,0.685714286 Z" id="Stroke-1"></path>
                    <polyline id="Stroke-3" points="23.3142857 22.6285714 23.3142857 23.3142857 22.6285714 23.3142857"></polyline>
                    <path d="M21.0212571,23.3142857 L19.1465143,23.3142857" id="Stroke-4" stroke-dasharray="1.562,2.344"></path>
                    <polyline id="Stroke-5" points="18.3428571 23.3142857 17.6571429 23.3142857 17.6571429 22.6285714"></polyline>
                    <path d="M17.6571429,20.6962286 L17.6571429,2.3376" id="Stroke-6" stroke-dasharray="1.879,2.818"></path>
                    <polyline id="Stroke-7" points="17.6571429 1.37142857 17.6571429 0.685714286 18.3428571 0.685714286"></polyline>
                    <path d="M19.9501714,0.685714286 L21.8249143,0.685714286" id="Stroke-8" stroke-dasharray="1.562,2.344"></path>
                    <polyline id="Stroke-9" points="22.6285714 0.685714286 23.3142857 0.685714286 23.3142857 1.37142857"></polyline>
                    <path d="M23,3.30377143 L23,21.6624" id="Stroke-10" stroke-dasharray="1.879,2.818"></path>
                    <polyline id="Stroke-11" points="17.6571429 22.6285714 17.6571429 23.3142857 16.9714286 23.3142857"></polyline>
                    <path d="M15.3641143,23.3142857 L13.4893714,23.3142857" id="Stroke-12" stroke-dasharray="1.562,2.344"></path>
                    <polyline id="Stroke-13" points="12.6857143 23.3142857 12 23.3142857 12 22.6285714"></polyline>
                    <path d="M12,20.6962286 L12,2.3376" id="Stroke-14" stroke-dasharray="1.879,2.818"></path>
                    <polyline id="Stroke-15" points="12 1.37142857 12 0.685714286 12.6857143 0.685714286"></polyline>
                    <path d="M14.2930286,0.685714286 L16.1677714,0.685714286" id="Stroke-16" stroke-dasharray="1.562,2.344"></path>
                    <polyline id="Stroke-17" points="16.9714286 0.685714286 17.6571429 0.685714286 17.6571429 1.37142857"></polyline>
                    <path d="M17.6571429,3.30377143 L17.6571429,21.6624" id="Stroke-19" stroke-dasharray="1.879,2.818"></path>
                    <path d="M4.10331429,13.5236571 L4.10331429,14.7428571 M8.56114286,13.5236571 L8.56114286,14.7428571 M15.4244571,13.5236571 L15.4244571,14.7428571 M19.8822857,13.5236571 L19.8822857,14.7428571" id="Stroke-20" stroke-dasharray="2,4"></path>
                    <path d="M17.6571429,10.1232 L17.6571429,16.7232" id="Stroke-21"></path>
                </g>
            </g>
        </g>
    </g>
</svg>