<?xml version="1.0" encoding="UTF-8"?>
<svg width="25px" height="21px" viewBox="0 0 25 21" version="1.1" xmlns="http://www.w3.org/2000/svg" xmlns:xlink="http://www.w3.org/1999/xlink">
    <!-- Generator: Sketch 49.3 (51167) - http://www.bohemiancoding.com/sketch -->
    <title>D/Icon/Features/Car Spaces</title>
    <desc>Created with Sketch.</desc>
    <defs></defs>
    <g id="Symbols" stroke="none" stroke-width="1" fill="none" fill-rule="evenodd" stroke-linecap="round" stroke-linejoin="round">
        <g id="Icon/Unique/Car-Spaces/Grey" transform="translate(-4.000000, -6.000000)" stroke="#A5B2BA">
            <g id="D/Icon/Features/Car-Spaces" transform="translate(5.000000, 6.000000)">
                <g id="Car-Spaces">
                    <path d="M11.3142857,0.621257143 C10.1156571,0.621257143 6.9888,0.768 6.21325714,1.59908571 C5.64891429,2.72297143 4.63817143,6.58422857 4.63817143,6.58422857" id="Stroke-1"></path>
                    <path d="M11.3142857,6.58422857 L4.63817143,6.58422857 C4.63817143,6.58422857 4.19177143,5.34994286 3.83931429,5.24022857 C3.48685714,5.13051429 2.2176,4.94331429 2.2176,5.66194286 C2.2176,6.66994286 3.55748571,6.74948571 3.73371429,7.3296" id="Path"></path>
                    <path d="M4.63817143,6.58422857 C4.63817143,6.58422857 3.39291429,7.65737143 3.39291429,8.19702857 C3.39291429,10.4214857 4.28571429,13.6608 4.47428571,13.8075429 C4.66217143,13.9542857 6.83853982,14.1154175 8.06939696,14.1154175" id="Path"></path>
                    <path d="M5.65508571,14.0187429 L5.65508571,15.7467429 C5.65508571,15.7467429 5.27862857,15.9421714 4.61485714,15.9421714 C3.95177143,15.9421714 3.57462857,15.7467429 3.57462857,15.7467429 L3.57462857,10.2493714" id="Path"></path>
                    <path d="M11.3142857,0.621257143 C12.5129143,0.621257143 15.6390857,0.768 16.4153143,1.59908571 C16.9789714,2.72297143 17.9904,6.58422857 17.9904,6.58422857" id="Path"></path>
                    <path d="M11.3142857,6.58422857 L17.9904,6.58422857 C17.9904,6.58422857 18.4368,5.34994286 18.7892571,5.24022857 C19.1417143,5.13051429 20.4109714,4.94331429 20.4109714,5.66194286 C20.4109714,6.66994286 19.0710857,6.74948571 18.8948571,7.3296" id="Path"></path>
                    <path d="M17.9904,6.57999992 C17.9904,6.57999992 19.2356571,7.65314278 19.2356571,8.19279992 C19.2356571,10.4172571 18.3428571,13.6565714 18.1549714,13.8033142 C17.9664,13.9500571 15.8340676,14.0978222 14.6032105,14.0978222" id="Path"></path>
                    <path d="M11.3142857,12.4011429 L15.6589714,12.4011429 C15.6589714,12.4011429 16.5819429,14.5405714 11.3142857,14.5405714 C6.04662857,14.5405714 6.9696,12.4011429 6.9696,12.4011429 L11.3142857,12.4011429 L11.3142857,12.4011429 Z" id="Stroke-4"></path>
                    <path d="M16.9734857,14.0187429 L16.9734857,15.7467429 C16.9734857,15.7467429 17.3499429,15.9421714 18.0137143,15.9421714 C18.6768,15.9421714 19.0539429,15.7467429 19.0539429,15.7467429 L19.0539429,10.2493714" id="Path"></path>
                    <path d="M16.3824,8.91085714 C16.4832,9.37234286 16.8877714,9.66994286 17.2854857,9.576 C17.6832,9.48205714 17.9245714,9.03222857 17.8237714,8.57074286 C17.7229714,8.10925714 17.3190857,7.81165714 16.9206857,7.9056 C16.5229714,7.99954286 16.2822857,8.44937143 16.3824,8.91085714 L16.3824,8.91085714 Z" id="Path"></path>
                    <path d="M6.24548571,8.91085714 C6.14537143,9.37234286 5.7408,9.66994286 5.34308571,9.576 C4.94537143,9.48205714 4.704,9.03222857 4.8048,8.57074286 C4.9056,8.10925714 5.30948571,7.81165714 5.70788571,7.9056 C6.1056,7.99954286 6.34628571,8.44937143 6.24548571,8.91085714 L6.24548571,8.91085714 Z" id="Path"></path>
                    <path d="M11.3142857,8.49325714 C11.3142857,8.49325714 8.63794286,8.50697143 8.03931429,8.80114286 C7.44068571,9.09462857 7.06011429,10.4454857 7.06011429,10.4454857 L11.3142857,10.4454857 L11.3142857,8.49325714 Z" id="Path"></path>
                    <path d="M11.3142857,8.49325714 C11.3142857,8.49325714 13.9906286,8.50697143 14.5892571,8.80114286 C15.1878857,9.09462857 15.5684571,10.4454857 15.5684571,10.4454857 L11.3142857,10.4454857 L11.3142857,8.49325714 Z" id="Path"></path>
                    <path d="M5.99451429,2.18537143 L16.6340571,2.18537143 L5.99451429,2.18537143 Z" id="Path"></path>
                    <path d="M0.610285714,17.8868571 L22.0182857,17.8868571 L0.610285714,17.8868571 Z" id="Path"></path>
                    <path d="M0,20.6358857 L2.10582857,10.7979429 L0,20.6358857 Z" id="Path"></path>
                    <path d="M22.6285714,20.6358857 L20.5227429,10.7979429 L22.6285714,20.6358857 Z" id="Path"></path>
                </g>
            </g>
        </g>
    </g>
</svg>