<?xml version="1.0" encoding="UTF-8"?>
<svg width="24px" height="24px" viewBox="0 0 24 24" version="1.1" xmlns="http://www.w3.org/2000/svg" xmlns:xlink="http://www.w3.org/1999/xlink">
    <!-- Generator: Sketch 49.3 (51167) - http://www.bohemiancoding.com/sketch -->
    <title>D/Icon/Features/Carports</title>
    <desc>Created with Sketch.</desc>
    <defs></defs>
    <g id="Symbols" stroke="none" stroke-width="1" fill="none" fill-rule="evenodd" stroke-linecap="round" stroke-linejoin="round">
        <g id="Icon/Unique/Carports/Grey" transform="translate(-4.000000, -3.000000)" stroke="#A5B2BA">
            <g id="D/Icon/Features/Carports" transform="translate(4.000000, 4.000000)">
                <g id="Carports">
                    <path d="M12,6.79451429 C10.8013714,6.79451429 7.67451429,6.94125714 6.89897143,7.77234286 C6.33462857,8.89622857 5.32388571,12.7574857 5.32388571,12.7574857" id="Stroke-1"></path>
                    <path d="M12,12.7574857 L5.32388571,12.7574857 C5.32388571,12.7574857 4.87748571,11.5232 4.52502857,11.4134857 C4.17257143,11.3037714 2.90331429,11.1165714 2.90331429,11.8352 C2.90331429,12.8432 4.2432,12.9227429 4.41942857,13.5028571" id="Path"></path>
                    <path d="M5.32388571,12.7574857 C5.32388571,12.7574857 4.07862857,13.8306286 4.07862857,14.3702857 C4.07862857,16.5947429 4.97142857,19.8340571 5.16,19.9808 C5.34788571,20.1275429 7.41928937,20.2691649 8.65014652,20.2691649" id="Path"></path>
                    <path d="M6.3408,20.192 L6.3408,21.92 C6.3408,21.92 5.96434286,22.1154286 5.30057143,22.1154286 C4.63748571,22.1154286 4.26034286,21.92 4.26034286,21.92 L4.26034286,16.4226286" id="Path"></path>
                    <path d="M12,6.79451429 C13.1986286,6.79451429 16.3248,6.94125714 17.1010286,7.77234286 C17.6646857,8.89622857 18.6761143,12.7574857 18.6761143,12.7574857" id="Path"></path>
                    <path d="M12,12.7574857 L18.6761143,12.7574857 C18.6761143,12.7574857 19.1225143,11.5232 19.4749714,11.4134857 C19.8274286,11.3037714 21.0966857,11.1165714 21.0966857,11.8352 C21.0966857,12.8432 19.7568,12.9227429 19.5805714,13.5028571" id="Path"></path>
                    <path d="M18.6761143,12.7574857 C18.6761143,12.7574857 19.9213714,13.8306286 19.9213714,14.3702857 C19.9213714,16.5947429 19.0285714,19.8340571 18.8406857,19.9808 C18.6521143,20.1275429 16.5321267,20.2642821 15.3012695,20.2642821" id="Path"></path>
                    <path d="M12,18.5744 L16.3446857,18.5744 C16.3446857,18.5744 17.2676571,20.7138286 12,20.7138286 C6.73234286,20.7138286 7.65531429,18.5744 7.65531429,18.5744 L12,18.5744 L12,18.5744 Z" id="Stroke-4"></path>
                    <path d="M17.6592,20.192 L17.6592,21.92 C17.6592,21.92 18.0356571,22.1154286 18.6994286,22.1154286 C19.3625143,22.1154286 19.7396571,21.92 19.7396571,21.92 L19.7396571,16.4226286" id="Path"></path>
                    <path d="M17.0681143,15.0841143 C17.1689143,15.5456 17.5734857,15.8432 17.9712,15.7492571 C18.3689143,15.6553143 18.6102857,15.2054857 18.5094857,14.744 C18.4086857,14.2825143 18.0048,13.9849143 17.6064,14.0788571 C17.2086857,14.1728 16.968,14.6226286 17.0681143,15.0841143 L17.0681143,15.0841143 Z" id="Path"></path>
                    <path d="M6.9312,15.0841143 C6.83108571,15.5456 6.42651429,15.8432 6.0288,15.7492571 C5.63108571,15.6553143 5.38971429,15.2054857 5.49051429,14.744 C5.59131429,14.2825143 5.9952,13.9849143 6.3936,14.0788571 C6.79131429,14.1728 7.032,14.6226286 6.9312,15.0841143 L6.9312,15.0841143 Z" id="Path"></path>
                    <path d="M12,14.6665143 C12,14.6665143 9.32365714,14.6802286 8.72502857,14.9744 C8.1264,15.2678857 7.74582857,16.6187429 7.74582857,16.6187429 L12,16.6187429 L12,14.6665143 Z" id="Path"></path>
                    <path d="M12,14.6665143 C12,14.6665143 14.6763429,14.6802286 15.2749714,14.9744 C15.8736,15.2678857 16.2541714,16.6187429 16.2541714,16.6187429 L12,16.6187429 L12,14.6665143 Z" id="Path"></path>
                    <path d="M6.68022857,8.35862857 L17.3197714,8.35862857 L6.68022857,8.35862857 Z" id="Path"></path>
                    <path d="M1.43794286,22.1154286 L1.43794286,5.33737143 L1.43794286,22.1154286 Z" id="Path"></path>
                    <path d="M22.5620571,22.1154286 L22.5620571,5.33737143 L22.5620571,22.1154286 Z" id="Path"></path>
                    <path d="M0.685714286,2.5808 L12,0.1808 L0.685714286,2.5808 Z" id="Path"></path>
                    <path d="M23.3142857,2.5808 L12,0.1808 L23.3142857,2.5808 Z" id="Path"></path>
                    <polygon id="Path" points="0.685714286 2.5808 23.3142857 2.5808 23.3142857 5.13645714 0.685714286 5.13645714"></polygon>
                </g>
            </g>
        </g>
    </g>
</svg>