<?xml version="1.0" encoding="UTF-8"?>
<svg width="24px" height="24px" viewBox="0 0 24 24" version="1.1" xmlns="http://www.w3.org/2000/svg" xmlns:xlink="http://www.w3.org/1999/xlink">
    <!-- Generator: Sketch 49.3 (51167) - http://www.bohemiancoding.com/sketch -->
    <title>D/Icon/Features/Courtyard</title>
    <desc>Created with Sketch.</desc>
    <defs></defs>
    <g id="Symbols" stroke="none" stroke-width="1" fill="none" fill-rule="evenodd" stroke-linecap="round" stroke-linejoin="round">
        <g id="Icon/Unique/Courtyard/Grey" transform="translate(-4.000000, -4.000000)" stroke="#A5B2BA">
            <g id="D/Icon/Features/Courtyard" transform="translate(4.000000, 4.000000)">
                <g id="Courtyard">
                    <polygon id="Stroke-4" points="0.953142857 18.5869714 23.0468571 18.5869714 23.0468571 20.6050286 0.953142857 20.6050286"></polygon>
                    <path d="M22.3021714,13.9220571 C22.6347429,13.4948571 22.8322286,12.9579429 22.8322286,12.3744 C22.8322286,11.8752 22.6827429,11.4130286 22.4324571,11.0214857 C22.8123429,10.5222857 23.0468571,9.90651429 23.0468571,9.23108571 C23.0468571,7.97074286 22.2596571,6.90034286 21.1522286,6.46834286 C21.4745143,6.12205714 21.6754286,5.66125714 21.6754286,5.1504 C21.6754286,4.07794286 20.8052571,3.20777143 19.7328,3.20777143 C19.4818286,3.20777143 19.2432,3.2592 19.0230857,3.34628571 C18.9456,2.02148571 17.8580571,0.968228571 16.5140571,0.968228571 C15.1206857,0.968228571 13.9906286,2.09828571 13.9906286,3.49165714 C13.9906286,3.6432 14.0098286,3.78925714 14.0352,3.93325714 C13.8761143,3.9024 13.7115429,3.88388571 13.5428571,3.88388571 C12.1337143,3.88388571 10.9906286,5.02628571 10.9906286,6.43611429 C10.9906286,7.28091429 11.4061714,8.02354286 12.0384,8.48777143 C11.0873143,8.84982857 10.4091429,9.76388571 10.4091429,10.8418286 C10.4091429,11.5385143 10.6916571,12.1700571 11.1483429,12.6267429" id="Path"></path>
                    <path d="M9.83725714,8.71131429 C9.56777143,8.58034286 9.26468571,8.50697143 8.94445714,8.50697143 C8.50834286,8.50697143 8.10582857,8.64617143 7.77394286,8.87862857 C7.42628571,7.71017143 6.35657143,6.85165714 5.07565714,6.85165714 C3.5136,6.85165714 2.24777143,8.11817143 2.24777143,9.67954286 C2.24777143,10.0436571 2.32251429,10.3885714 2.448,10.7081143 C1.59085714,11.0352 0.9792,11.8594286 0.9792,12.8310857 C0.9792,13.3817143 1.17462857,13.8864 1.49965714,14.2806857" id="Path"></path>
                    <path d="M5.88342857,5.7264 C6.25371429,4.41942857 7.43725714,3.4464 8.86628571,3.40594286 C9.52114286,3.38674286 10.1348571,3.5664 10.6512,3.89005714" id="Path"></path>
                    <path d="M15.3620571,20.6050286 L13.0093714,20.6050286 L13.0093714,23.2285714 L10.9906286,23.2285714 L10.9906286,20.6050286 L8.63794286,20.6050286 L8.63794286,23.2285714 L6.6192,23.2285714 L6.6192,20.6050286 L4.26651429,20.6050286 L4.26651429,23.2285714 L2.24777143,23.2285714 L2.24777143,20.6050286 L0.953142857,20.6050286 L0.953142857,18.5869714 L2.24777143,18.5869714 L2.24777143,15.5444571 L3.25714286,14.5926857 L4.26651429,15.5444571 L4.26651429,18.5869714 L6.6192,18.5869714 L6.6192,15.5444571 L7.62857143,14.5926857 L8.63794286,15.5444571 L8.63794286,18.5869714 L10.9906286,18.5869714 L10.9906286,15.5444571 L12,14.5926857 L13.0093714,15.5444571 L13.0093714,18.5869714 L15.3620571,18.5869714 L15.3620571,15.5444571 L16.3714286,14.5926857 L17.3808,15.5444571 L17.3808,18.5869714 L19.7334857,18.5869714 L19.7334857,15.5444571 L20.7428571,14.5926857 L21.7522286,15.5444571 L21.7522286,18.5869714 L23.0468571,18.5869714 L23.0468571,20.6050286 L21.7522286,20.6050286 L21.7522286,23.2285714 L19.7334857,23.2285714 L19.7334857,20.6050286 L17.3808,20.6050286 L17.3808,23.2285714 L15.3620571,23.2285714 L15.3620571,20.6050286 Z" id="Path"></path>
                </g>
            </g>
        </g>
    </g>
</svg>