<?xml version="1.0" encoding="UTF-8"?>
<svg width="26px" height="26px" viewBox="0 0 26 26" version="1.1" xmlns="http://www.w3.org/2000/svg" xmlns:xlink="http://www.w3.org/1999/xlink">
    <!-- Generator: Sketch 49.3 (51167) - http://www.bohemiancoding.com/sketch -->
    <title>D/Icon/Features/Deck</title>
    <desc>Created with Sketch.</desc>
    <defs></defs>
    <g id="Symbols" stroke="none" stroke-width="1" fill="none" fill-rule="evenodd" stroke-linecap="round" stroke-linejoin="round">
        <g id="Icon/Unique/Deck/Grey" transform="translate(-3.000000, -3.000000)" stroke="#A5B2BA">
            <g id="D/Icon/Features/Deck" transform="translate(4.000000, 4.000000)">
                <g id="Deck">
                    <path d="M0,1.83604472 L23.6124224,1.83604472 L0,1.83604472 Z" id="Stroke-1"></path>
                    <path d="M0,1.83604472 C0,0.878668323 5.28560497,0.103036025 11.8062112,0.103036025 C18.3268174,0.103036025 23.6124224,0.878668323 23.6124224,1.83604472 L0,1.83604472 Z" id="Path"></path>
                    <polygon id="Path" points="0 1.83604472 23.6124224 1.83604472 23.6124224 3.69856398 0 3.69856398"></polygon>
                    <path d="M0.710519255,3.69856398 L0.710519255,13.7066534 L0.710519255,3.69856398 Z" id="Path"></path>
                    <path d="M22.9019031,3.69856398 L22.9019031,13.7066534 L22.9019031,3.69856398 Z" id="Path"></path>
                    <path d="M5.31637267,19.4781019 L18.2960497,19.4781019 L5.31637267,19.4781019 Z" id="Path"></path>
                    <path d="M5.31637267,21.5967801 L18.2960497,21.5967801 L5.31637267,21.5967801 Z" id="Path"></path>
                    <path d="M5.31637267,23.7154584 L18.2960497,23.7154584 L5.31637267,23.7154584 Z" id="Path"></path>
                    <polygon id="Path" points="19.9453416 13.7066534 23.6124224 13.7066534 23.6124224 23.7147429 19.9453416 23.7147429"></polygon>
                    <polygon id="Path" points="18.4248447 23.7154584 19.9453416 23.7154584 19.9453416 12.3228224 18.4248447 12.3228224"></polygon>
                    <path d="M20.5156174,10.9919404 C20.5156174,10.2570932 19.9202981,9.66177391 19.1847354,9.66177391 C18.4506037,9.66177391 17.8545689,10.2570932 17.8545689,10.9919404 C17.8545689,11.7267876 18.4506037,12.3228224 19.1847354,12.3228224 C19.9202981,12.3228224 20.5156174,11.7267876 20.5156174,10.9919404 L20.5156174,10.9919404 Z" id="Stroke-4"></path>
                    <path d="M3.09680497,10.9919404 C3.09680497,10.2570932 3.69283975,9.66177391 4.42697143,9.66177391 C5.16181863,9.66177391 5.75785342,10.2570932 5.75785342,10.9919404 C5.75785342,11.7267876 5.16181863,12.3228224 4.42697143,12.3228224 C3.69283975,12.3228224 3.09680497,11.7267876 3.09680497,10.9919404 L3.09680497,10.9919404 Z" id="Path"></path>
                    <polygon id="Path" points="7.56813913 18.3597317 7.56813913 5.10743851 16.0442832 5.10743851 16.0442832 18.3597317"></polygon>
                    <path d="M14.7770832,11.4577491 L14.7770832,12.5610932 L14.7770832,11.4577491 Z" id="Path"></path>
                    <polygon id="Path" points="0 23.7154584 3.66708075 23.7154584 3.66708075 13.7073689 0 13.7073689"></polygon>
                    <polygon id="Path" points="3.66708075 12.3228224 5.18757764 12.3228224 5.18757764 23.7154584 3.66708075 23.7154584"></polygon>
                    <path d="M21.7785242,15.2750907 L21.7785242,22.1470211 L21.7785242,15.2750907 Z" id="Path"></path>
                    <path d="M1.83389814,15.2750907 L1.83389814,22.1470211 L1.83389814,15.2750907 Z" id="Path"></path>
                </g>
            </g>
        </g>
    </g>
</svg>