<?xml version="1.0" encoding="UTF-8"?>
<svg width="20px" height="25px" viewBox="0 0 20 25" version="1.1" xmlns="http://www.w3.org/2000/svg" xmlns:xlink="http://www.w3.org/1999/xlink">
    <!-- Generator: Sketch 49.3 (51167) - http://www.bohemiancoding.com/sketch -->
    <title>D/Icon/Features/Dishwasher</title>
    <desc>Created with Sketch.</desc>
    <defs></defs>
    <g id="Symbols" stroke="none" stroke-width="1" fill="none" fill-rule="evenodd" stroke-linecap="round" stroke-linejoin="round">
        <g id="Icon/Unique/Dishwasher/Grey" transform="translate(-6.000000, -4.000000)" stroke="#A5B2BA">
            <g id="D/Icon/Features/Dishwasher" transform="translate(6.000000, 5.000000)">
                <g id="Dishwasher">
                    <path d="M9.94285714,9.76251429 L9.94285714,17.9314286" id="Path" stroke-dasharray="2,3"></path>
                    <path d="M8.24297143,9.76251429 L4.7856,17.1634286" id="Path" stroke-dasharray="2,3"></path>
                    <path d="M11.6427429,9.76251429 L15.1001143,17.1634286" id="Path" stroke-dasharray="2,3"></path>
                    <path d="M19.2541714,21.2571429 C19.2541714,22.0114286 18.6370286,22.6285714 17.8827429,22.6285714 L2.00297143,22.6285714 C1.24868571,22.6285714 0.631542857,22.0114286 0.631542857,21.2571429 L0.631542857,1.37142857 C0.631542857,0.617142857 1.24868571,0 2.00297143,0 L17.8827429,0 C18.6370286,0 19.2541714,0.617142857 19.2541714,1.37142857 L19.2541714,21.2571429 L19.2541714,21.2571429 Z" id="Path"></path>
                    <polygon id="Path" points="2.36434286 5.05988571 17.5213714 5.05988571 17.5213714 20.1668571 2.36434286 20.1668571"></polygon>
                    <polygon id="Path" points="13.9076571 1.67177143 17.5220571 1.67177143 17.5220571 3.43337143 13.9076571 3.43337143"></polygon>
                    <path d="M12.6877714,2.55222857 C12.6877714,3.03908571 12.2934857,3.43337143 11.8066286,3.43337143 C11.3204571,3.43337143 10.9261714,3.03908571 10.9261714,2.55222857 C10.9261714,2.06605714 11.3204571,1.67177143 11.8066286,1.67177143 C12.2934857,1.67177143 12.6877714,2.06605714 12.6877714,2.55222857 L12.6877714,2.55222857 Z" id="Path"></path>
                    <polygon id="Path" points="5.28548571 7.58605714 14.5995429 7.58605714 14.5995429 9.76251429 5.28548571 9.76251429"></polygon>
                    <polygon id="Path" points="8.85462857 5.05988571 11.0310857 5.05988571 11.0310857 7.58605714 8.85462857 7.58605714"></polygon>
                    <path d="M2.36434286,1.67177143 L2.36434286,3.43337143 L2.36434286,1.67177143 Z" id="Path"></path>
                </g>
            </g>
        </g>
    </g>
</svg>