<?xml version="1.0" encoding="UTF-8"?>
<svg width="24px" height="22px" viewBox="0 0 24 22" version="1.1" xmlns="http://www.w3.org/2000/svg" xmlns:xlink="http://www.w3.org/1999/xlink">
    <!-- Generator: Sketch 49.3 (51167) - http://www.bohemiancoding.com/sketch -->
    <title>D/Icon/Features/Ducted Cooling</title>
    <desc>Created with Sketch.</desc>
    <defs></defs>
    <g id="Symbols" stroke="none" stroke-width="1" fill="none" fill-rule="evenodd" stroke-linecap="round" stroke-linejoin="round">
        <g id="Icon/Unique/Ducted-Cooling/Grey" transform="translate(-4.000000, -5.000000)" stroke="#A5B2BA">
            <g id="D/Icon/Features/Ducted-Cooling" transform="translate(5.000000, 6.000000)">
                <g id="Ducted-Cooling">
                    <path d="M13.6296393,2.7197929 C14.4120193,1.27225167 15.9432602,0.288914286 17.7042286,0.288914286 C20.2605714,0.288914286 22.3328,2.36114286 22.3328,4.91748571 C22.3328,5.7673886 22.1037459,6.56377985 21.704,7.24829715 L21.704,18.2992 L21.6950857,18.2992 C21.6950857,19.0788571 16.9149714,19.7110857 11.0185143,19.7110857 C5.12205714,19.7110857 0.341942857,19.0788571 0.341942857,18.2992 L0.332342857,18.2992 L0.332342857,4.08914286 L0.341942857,4.08914286 C0.341942857,3.30948571 5.12205714,2.67725714 11.0185143,2.67725714 C11.9192961,2.67725714 12.7940252,2.69201187 13.6296393,2.7197929 Z M20.0980571,11.1945143 L20.0980571,17.0539429 L1.93828571,17.0539429 L1.93828571,5.3344 L11.7776,5.3344 M3.71634286,7.25714286 L11.7776,7.25714286 M3.71634286,9.22582857 L12.8466286,9.22582857 M3.71634286,11.1945143 L18.32,11.1945143 M3.71634286,13.1632 L18.32,13.1632 M3.71634286,15.1318857 L18.32,15.1318857" id="Stroke-1"></path>
                    <path d="M22.3328,4.91748571 C22.3328,7.47382857 20.2605714,9.54605714 17.7042286,9.54605714 C15.1478857,9.54605714 13.0756571,7.47382857 13.0756571,4.91748571 C13.0756571,2.36114286 15.1478857,0.288914286 17.7042286,0.288914286 C20.2605714,0.288914286 22.3328,2.36114286 22.3328,4.91748571 L22.3328,4.91748571 Z M17.7042286,2.0608 L17.7042286,7.77485714 L17.7042286,2.0608 Z M20.5609143,4.91748571 L14.8468571,4.91748571 L20.5609143,4.91748571 Z M19.7243429,6.93828571 L15.6834286,2.89737143 L19.7243429,6.93828571 Z M19.7243429,2.89737143 L15.6834286,6.93828571 L19.7243429,2.89737143 Z" id="Stroke-4"></path>
                </g>
            </g>
        </g>
    </g>
</svg>