<?xml version="1.0" encoding="UTF-8"?>
<svg width="24px" height="22px" viewBox="0 0 24 22" version="1.1" xmlns="http://www.w3.org/2000/svg" xmlns:xlink="http://www.w3.org/1999/xlink">
    <!-- Generator: Sketch 49.3 (51167) - http://www.bohemiancoding.com/sketch -->
    <title>D/Icon/Features/Ducted Heating</title>
    <desc>Created with Sketch.</desc>
    <defs></defs>
    <g id="Symbols" stroke="none" stroke-width="1" fill="none" fill-rule="evenodd" stroke-linecap="round" stroke-linejoin="round">
        <g id="Icon/Unique/Ducted-Heating/Grey" transform="translate(-4.000000, -5.000000)" stroke="#A5B2BA">
            <g id="D/Icon/Features/Ducted-Heating" transform="translate(5.000000, 6.000000)">
                <g id="Ducted-Heating">
                    <g>
                        <path d="M13.6350313,2.71517236 C14.4190404,1.27287265 15.9472968,0.293714286 17.7042286,0.293714286 C20.2605714,0.293714286 22.3328,2.36662857 22.3328,4.92297143 C22.3328,5.77264634 22.1037459,6.5689612 21.704,7.2534781 L21.704,18.2944 L21.6950857,18.2944 C21.6950857,19.0740571 16.9149714,19.7062857 11.0185143,19.7062857 C5.12205714,19.7062857 0.341942857,19.0740571 0.341942857,18.2944 L0.332342857,18.2944 L0.332342857,4.08434286 L0.341942857,4.08434286 C0.341942857,3.30468571 5.12205714,2.67245714 11.0185143,2.67245714 C11.9212338,2.67245714 12.7977884,2.68727541 13.6350313,2.71517236 Z M20.0980571,11.1890286 L20.0980571,17.0491429 L1.93828571,17.0491429 L1.93828571,5.3296 L11.7776,5.3296 M3.71634286,7.25165714 L11.7776,7.25165714 M3.71634286,9.22034286 L12.8466286,9.22034286 M3.71634286,11.1890286 L18.32,11.1890286 M3.71634286,13.1577143 L18.32,13.1577143 M3.71634286,15.1264 L18.32,15.1264" id="Stroke-1"></path>
                        <path d="M22.3328,4.92297143 C22.3328,7.47862857 20.2605714,9.55154286 17.7042286,9.55154286 C15.1478857,9.55154286 13.0756571,7.47862857 13.0756571,4.92297143 C13.0756571,2.36662857 15.1478857,0.293714286 17.7042286,0.293714286 C20.2605714,0.293714286 22.3328,2.36662857 22.3328,4.92297143 L22.3328,4.92297143 Z M18.0717714,2.40365714 C17.8420571,2.95428571 17.2468571,3.10857143 17.2468571,3.90811429 C17.2468571,4.90034286 18.1616,4.90034286 18.1616,5.89257143 C18.1616,6.71337143 17.5362286,6.856 17.3195429,7.4416 M15.8246857,3.36091429 C15.6820571,3.7024 15.3131429,3.79771429 15.3131429,4.29348571 C15.3131429,4.90857143 15.8802286,4.90857143 15.8802286,5.52434286 C15.8802286,6.03314286 15.4921143,6.12091429 15.3584,6.48365714 M20.0397714,3.36091429 C19.8971429,3.7024 19.5282286,3.79771429 19.5282286,4.29348571 C19.5282286,4.90857143 20.0953143,4.90857143 20.0953143,5.52434286 C20.0953143,6.03314286 19.7072,6.12091429 19.5734857,6.48365714" id="Stroke-4"></path>
                    </g>
                </g>
            </g>
        </g>
    </g>
</svg>