<?xml version="1.0" encoding="UTF-8"?>
<svg width="23px" height="27px" viewBox="0 0 23 27" version="1.1" xmlns="http://www.w3.org/2000/svg" xmlns:xlink="http://www.w3.org/1999/xlink">
    <!-- Generator: Sketch 49.3 (51167) - http://www.bohemiancoding.com/sketch -->
    <title>D/Icon/Features/Energy Rating</title>
    <desc>Created with Sketch.</desc>
    <defs></defs>
    <g id="Symbols" stroke="none" stroke-width="1" fill="none" fill-rule="evenodd" stroke-linecap="round" stroke-linejoin="round">
        <g id="Icon/Unique/Energy-Rating/Grey" transform="translate(-4.000000, -2.000000)" stroke="#A5B2BA">
            <g id="D/Icon/Features/Energy-Rating" transform="translate(4.000000, 3.000000)">
                <g id="Energy-Rating">
                    <path d="M8.28093506,18.345226 L14.6558338,16.1938286 L8.28093506,18.345226 Z"></path>
                    <path d="M8.28093506,20.2998857 L14.6558338,18.1477403 L8.28093506,20.2998857 Z" id="Path"></path>
                    <path d="M8.28093506,22.2545455 L14.6558338,20.1024 L8.28093506,22.2545455 Z" id="Path"></path>
                    <path d="M14.8563117,14.7687896 C15.1173818,13.4866286 15.6971221,11.9733195 16.9471169,10.6612364" id="Path"></path>
                    <path d="M8.28093506,16.7847896 C8.28093506,15.4442805 8.01612468,12.7872 5.98965195,10.6612364" id="Path"></path>
                    <path d="M6.39135584,11.1519584 C5.36128831,9.96928831 4.73666494,8.42306494 4.73666494,6.73171948 C4.73666494,3.0139013 7.75056623,0 11.4683844,0 C15.1862026,0 18.2001039,3.0139013 18.2001039,6.73171948 C18.2001039,8.34227532 17.6338286,9.82117403 16.689787,10.9799065" id="Path"></path>
                    <path d="M13.9219948,22.075013 C13.9219948,23.5165091 12.7527896,24.6857143 11.3105455,24.6857143 C10.454026,24.6857143 9.69325714,24.2727896 9.2174961,23.6354494" id="Path"></path>
                    <polygon id="Path" points="11.4683844 2.98547532 12.7714909 5.62535065 15.6844052 6.048 13.5763948 8.1028987 14.0738494 11.0045922 11.4683844 9.63490909 8.86291948 11.0045922 9.36037403 8.1028987 7.25236364 6.048 10.1652779 5.62535065"></polygon>
                    <path d="M18.9608727,2.15588571 L21.1646338,0.430877922 L18.9608727,2.15588571 Z" id="Path"></path>
                    <path d="M18.9608727,10.396426 L21.1646338,12.1214338 L18.9608727,10.396426 Z" id="Path"></path>
                    <path d="M20.0627532,6.27615584 L22.9367688,6.27615584 L20.0627532,6.27615584 Z" id="Path"></path>
                    <path d="M3.9758961,10.396426 L1.77213506,12.1214338 L3.9758961,10.396426 Z" id="Path"></path>
                    <path d="M3.9758961,2.15588571 L1.77213506,0.430877922 L3.9758961,2.15588571 Z" id="Path"></path>
                    <path d="M2.87401558,6.27615584 L0,6.27615584 L2.87401558,6.27615584 Z" id="Path"></path>
                </g>
            </g>
        </g>
    </g>
</svg>