<?xml version="1.0" encoding="UTF-8"?>
<svg width="24px" height="24px" viewBox="0 0 24 24" version="1.1" xmlns="http://www.w3.org/2000/svg" xmlns:xlink="http://www.w3.org/1999/xlink">
    <!-- Generator: Sketch 49.3 (51167) - http://www.bohemiancoding.com/sketch -->
    <title>D/Icon/Features/Ensuite</title>
    <desc>Created with Sketch.</desc>
    <defs></defs>
    <g id="Symbols" stroke="none" stroke-width="1" fill="none" fill-rule="evenodd" stroke-linecap="round" stroke-linejoin="round">
        <g id="Icon/Unique/Ensuite/Grey" transform="translate(-4.000000, -4.000000)" stroke="#A5B2BA">
            <g id="D/Icon/Features/Ensuite" transform="translate(4.000000, 4.000000)">
                <g id="Ensuite">
                    <path d="M20.0187429,6.53828571 C21.0075429,4.6032 20.2477714,2.23474286 18.3209143,1.248 C16.3940571,0.261257143 14.0304,1.02994286 13.0416,2.96502857 L20.0187429,6.53828571 L20.0187429,6.53828571 Z" id="Stroke-1"></path>
                    <path d="M23.3142857,15.9901714 L23.3142857,15.9901714 C23.3142857,18.8256 22.3913143,21.1241143 19.5620571,21.1241143 L4.43794286,21.1241143 C1.60868571,21.1241143 0.685714286,18.8256 0.685714286,15.9901714 L23.3142857,15.9901714 Z" id="Path"></path>
                    <polygon id="Path" points="23.3142857 15.888 23.3142857 12.7069714 0.685714286 12.7069714 0.685714286 15.9901714"></polygon>
                    <path d="M23.3142857,12.7069714 L23.3142857,3.37851429 L23.3142857,12.7069714 Z" id="Path"></path>
                    <path d="M0.685714286,15.9901714 L23.3142857,15.9901714 L0.685714286,15.9901714 Z" id="Path"></path>
                    <path d="M23.3142857,3.37851429 C23.3142857,1.8912 21.9764571,0.685714286 20.3259429,0.685714286 C19.6224,0.685714286 18.9757714,0.904457143 18.4649143,1.27131429" id="Path"></path>
                    <path d="M16.5264,4.74925714 L16.2102857,5.35817143" id="Stroke-3"></path>
                    <path d="M15.1405714,7.42011429 L13.8925714,9.8256" id="Stroke-4" stroke-dasharray="2.258,3.388"></path>
                    <path d="M13.3570286,10.8569143 L13.0416,11.4651429 M17.9952,5.50217143 L17.8093714,6.16182857" id="Stroke-5"></path>
                    <path d="M17.3197714,7.90285714 L16.7485714,9.93462857" id="Stroke-6" stroke-dasharray="1.759,2.638"></path>
                    <path d="M16.5037714,10.8054857 L16.3186286,11.4651429 M15.1364571,4.03817143 L14.7030857,4.56891429" id="Stroke-7"></path>
                    <path d="M13.5044571,6.03771429 L10.1081143,10.2" id="Stroke-8" stroke-dasharray="1.843,2.765"></path>
                    <path d="M9.5088,10.9344 L9.07542857,11.4651429" id="Stroke-9"></path>
                    <path d="M19.5456,23.1202286 C19.5456,23.1202286 19.1718857,23.3142857 18.5142857,23.3142857 C17.8566857,23.3142857 17.4829714,23.1202286 17.4829714,23.1202286 L17.4829714,21.1241143 L19.5456,21.1241143 L19.5456,23.1202286 L19.5456,23.1202286 Z M6.51702857,23.1202286 C6.51702857,23.1202286 6.14331429,23.3142857 5.48571429,23.3142857 C4.82811429,23.3142857 4.4544,23.1202286 4.4544,23.1202286 L4.4544,21.1241143 L6.51702857,21.1241143 L6.51702857,23.1202286 L6.51702857,23.1202286 Z M1.6752,11.2662857 L1.6752,0.685714286 L11.0468571,0.685714286 L11.0468571,6.40937143 M3.1968,8.86628571 L4.33988571,8.86628571 L3.1968,8.86628571 Z" id="Stroke-11"></path>
                </g>
            </g>
        </g>
    </g>
</svg>