<?xml version="1.0" encoding="UTF-8"?>
<svg width="24px" height="24px" viewBox="0 0 24 24" version="1.1" xmlns="http://www.w3.org/2000/svg" xmlns:xlink="http://www.w3.org/1999/xlink">
    <!-- Generator: Sketch 49.3 (51167) - http://www.bohemiancoding.com/sketch -->
    <title>D/Icon/Features/Evaporative Cooling</title>
    <desc>Created with Sketch.</desc>
    <defs></defs>
    <g id="Symbols" stroke="none" stroke-width="1" fill="none" fill-rule="evenodd" stroke-linecap="round" stroke-linejoin="round">
        <g id="Icon/Unique/Evaporative-Cooling/Grey" transform="translate(-4.000000, -4.000000)" stroke="#A5B2BA">
            <g id="D/Icon/Features/Evaporative-Cooling" transform="translate(5.000000, 4.000000)">
                <g id="Evaporative-Cooling">
                    <path d="M17.7042286,2.6304 L17.7042286,8.34514286 L17.7042286,2.6304 Z" id="Path"></path>
                    <path d="M20.5609143,5.48777143 L14.8468571,5.48777143 L20.5609143,5.48777143 Z" id="Path"></path>
                    <path d="M19.7243429,7.50788571 L15.6834286,3.46765714 L19.7243429,7.50788571 Z" id="Path"></path>
                    <path d="M19.7243429,3.46765714 L15.6834286,7.50788571 L19.7243429,3.46765714 Z" id="Path"></path>
                    <polygon id="Path" points="12.2082286 20.2806857 12.2082286 13.7328 9.79177143 13.7328 9.79177143 20.2806857 8.13988571 20.2806857 11 23.1408 13.8601143 20.2806857"></polygon>
                    <path d="M6.36045714,20.1401143 C5.16045714,20.0626286 4.08594286,19.9570286 3.18834286,19.8288 C1.42194286,19.5771429 0.341942857,19.2397714 0.341942857,18.8688" id="Path"></path>
                    <path d="M22.3328,5.48777143 C22.3328,8.04411429 20.2605714,10.1163429 17.7042286,10.1163429 C15.1478857,10.1163429 13.0756571,8.04411429 13.0756571,5.48777143 C13.0756571,2.93142857 15.1478857,0.8592 17.7042286,0.8592 C20.2605714,0.8592 22.3328,2.93142857 22.3328,5.48777143 L22.3328,5.48777143 Z" id="Path"></path>
                    <polyline id="Path" points="8.28182857 17.6242286 1.93828571 17.6242286 1.93828571 5.904 11.7776 5.904"></polyline>
                    <polyline id="Path" points="20.0980571 11.7641143 20.0980571 17.6242286 13.7325714 17.6242286"></polyline>
                    <path d="M3.71634286,7.82674286 L11.7776,7.82674286" id="Path"></path>
                    <path d="M3.71634286,9.79542857 L12.8466286,9.79542857" id="Path"></path>
                    <path d="M3.71634286,11.7641143 L18.32,11.7641143" id="Path"></path>
                    <path d="M13.7325714,13.7328 L18.32,13.7328" id="Path"></path>
                    <path d="M3.71634286,13.7328 L8.28182857,13.7328" id="Path"></path>
                    <path d="M13.7325714,15.7014857 L18.32,15.7014857" id="Path"></path>
                    <path d="M3.71634286,15.7014857 L8.28182857,15.7014857" id="Path"></path>
                    <path d="M0.332342857,18.8688 L0.332342857,4.65942857 C0.341942857,3.87977143 5.12205714,3.24754286 11.0185143,3.24754286 C12.4937742,3.24754286 13.4926755,3.30000019 13.4926755,3.30000019" id="Path"></path>
                    <path d="M21.6950857,8 L21.704,18.8688 C21.6950857,19.4331429 19.1922286,19.92 15.5744,20.1462857" id="Path"></path>
                </g>
            </g>
        </g>
    </g>
</svg>