<?xml version="1.0" encoding="UTF-8"?>
<svg width="25px" height="24px" viewBox="0 0 25 24" version="1.1" xmlns="http://www.w3.org/2000/svg" xmlns:xlink="http://www.w3.org/1999/xlink">
    <!-- Generator: Sketch 49.3 (51167) - http://www.bohemiancoding.com/sketch -->
    <title>D/Icon/Features/Floorboards</title>
    <desc>Created with Sketch.</desc>
    <defs></defs>
    <g id="Symbols" stroke="none" stroke-width="1" fill="none" fill-rule="evenodd" stroke-linecap="round" stroke-linejoin="round">
        <g id="Icon/Unique/Floorboards/Grey" transform="translate(-4.000000, -4.000000)" stroke="#A5B2BA">
            <g id="D/Icon/Features/Floorboards" transform="translate(4.000000, 4.000000)">
                <g id="Group" transform="translate(1.000000, 1.000000)">
                    <path d="M22.6285714,21.9428571 L20.0784,0" id="Floorboards"></path>
                    <path d="M17.1106286,21.9428571 L15.5574857,0" id="Path"></path>
                    <path d="M5.51794286,21.9428571 L7.07108571,0" id="Path"></path>
                    <path d="M0,21.9428571 L2.55085714,0" id="Path"></path>
                    <path d="M11.3142857,0 L11.3142857,21.9428571" id="Path"></path>
                    <path d="M2.39314286,1.35565714 L6.95794286,1.35565714" id="Path"></path>
                    <path d="M11.3142857,12.3236571 L16.3337143,12.3236571" id="Path"></path>
                    <path d="M6.59245714,6.76868571 L11.3142857,6.76868571" id="Path"></path>
                    <path d="M15.8900571,2.21897143 L20.3362286,2.21897143" id="Path"></path>
                    <path d="M17.1106286,17.8662857 L22.1232,17.8662857" id="Path"></path>
                    <path d="M0.442285714,18.1350857 L5.77851429,18.1350857" id="Path"></path>
                    <path d="M4.38994286,16.7232 C3.39908571,14.8834286 2.48091429,10.9501714 2.78948571,7.55177143 C2.84708571,6.92365714 3.24,5.34445714 3.81805714,5.06605714 C4.74034286,4.6224 5.14834286,5.98491429 5.46308571,7.03337143" id="Path"></path>
                    <path d="M6.98948571,20.352 C8.18948571,20.5522286 9.73234286,18.8948571 9.94217143,16.0505143 C10.1424,13.3241143 8.92937143,10.3494857 7.78971429,8.52342857" id="Path"></path>
                    <path d="M6.78994286,17.2374857 C7.87542857,17.3808 8.26285714,16.6937143 8.41851429,15.8660571 C8.58308571,14.9904 7.99405714,13.4688 7.30422857,12.8660571" id="Path"></path>
                    <path d="M9.87565714,5.352 C8.90125714,4.392 8.44662857,1.61828571 9.64662857,1.00937143" id="Path"></path>
                    <path d="M12.5609143,1.38034286 C14.2182857,2.69485714 14.5872,4.69508571 14.6468571,6.38057143 C14.6969143,7.79108571 14.2758857,9.69188571 13.3323429,10.7808" id="Path"></path>
                    <path d="M12.5328,4.43794286 C13.2562286,5.75862857 13.3316571,7.15542857 12.5609143,8.46651429" id="Path"></path>
                    <path d="M13.3042286,21.4662857 C12.9030857,19.7636571 12.1522286,16.5963429 13.3323429,15.1803429 C13.9042286,14.4946286 14.8752,14.2662857 15.6185143,15.0946286" id="Path"></path>
                    <path d="M15.1323429,21.3805714 C14.3328,19.6950857 13.8466286,16.6662857 15.7899429,17.4946286" id="Path"></path>
                    <path d="M19.4756571,4.38034286 C17.8182857,5.15177143 17.0633143,8.10651429 17.7270857,11.3650286 C18.1899429,13.6374857 19.9899429,15.2948571 20.904,15.6377143" id="Path"></path>
                    <path d="M19.8185143,7.03748571 C18.8468571,7.89462857 18.7323429,11.3808 20.0180571,11.9808" id="Path"></path>
                    <path d="M2.01805714,14.4665143 C2.02628571,14.9814857 2.25325714,16.3494857 2.64685714,16.7232" id="Path"></path>
                </g>
            </g>
        </g>
    </g>
</svg>