<?xml version="1.0" encoding="UTF-8"?>
<svg width="26px" height="26px" viewBox="0 0 26 26" version="1.1" xmlns="http://www.w3.org/2000/svg" xmlns:xlink="http://www.w3.org/1999/xlink">
    <!-- Generator: Sketch 49.3 (51167) - http://www.bohemiancoding.com/sketch -->
    <title>D/Icon/Features/Frontage</title>
    <desc>Created with Sketch.</desc>
    <defs></defs>
    <g id="Symbols" stroke="none" stroke-width="1" fill="none" fill-rule="evenodd" stroke-linecap="round" stroke-linejoin="round">
        <g id="Icon/Unique/Frontage/Grey" transform="translate(-3.000000, -3.000000)" stroke="#A5B2BA">
            <g id="D/Icon/Features/Frontage" transform="translate(4.000000, 4.000000)">
                <g id="Frontage">
                    <path d="M20.4490733,5.60973913 L20.4490733,11.2731429 L16.7583801,11.2731429 L16.7583801,5.60973913 M15.8117366,6.41256149 L18.6037267,3.93182609 L21.3957168,6.41256149 M16.7583801,9.18237019 L20.4490733,9.18237019" id="Stroke-4"></path>
                    <path d="M6.85404224,5.60973913 L6.85404224,11.2731429 L3.16334907,11.2731429 L3.16334907,5.60973913 M2.21670559,6.41256149 L5.00869565,3.93182609 L7.80068571,6.41256149 M3.16334907,9.18237019 L6.85404224,9.18237019" id="Stroke-7"></path>
                    <path d="M13.6515578,5.60973913 L13.6515578,11.2731429 L9.9608646,11.2731429 L9.9608646,5.60973913 M9.01422112,6.41256149 L11.8062112,3.93182609 L14.5982012,6.41256149 M9.9608646,9.18237019 L13.6515578,9.18237019 L9.9608646,9.18237019 Z M0.558111801,1.67505093 L23.0557416,1.67505093 L0.558111801,1.67505093 Z M16.5530236,13.3717863 L20.7839404,13.3717863 L20.7839404,20.1242236 L16.5530236,20.1242236 L16.5530236,13.3717863 Z M16.5530236,15.8010037 L20.7846559,15.8010037 L16.5530236,15.8010037 Z M2.82776646,13.3717863 L7.05868323,13.3717863 L7.05868323,20.1242236 L2.82776646,20.1242236 L2.82776646,13.3717863 Z M2.82776646,15.8010037 L7.05939876,15.8010037 L2.82776646,15.8010037 Z M12.7120696,20.1242236 L12.7120696,18.827687 L12.7120696,20.1242236 Z" id="Stroke-10"></path>
                    <path d="M20.5737949,7.60248447 L22.5834932,7.60248447 L22.5834932,9.44607677 L22.5834932,23.6124224 L1.11765466,23.6124224 C1.11765466,23.6124224 1.11765466,7.60248445 1.11765466,7.60248447 C1.11765466,7.60248449 3.0596128,7.60248447 3.0596128,7.60248447" id="Path"></path>
                    <polyline id="Path" points="20.5627123 7.60248433 23.6124224 7.60248447 22.8968944 -9.26794873e-16 0.648607337 -9.26794873e-16 0 7.60248433 2.85466202 7.60248433"></polyline>
                    <polygon id="Path" points="23.6124224 23.6124224 0 23.6124224"></polygon>
                    <polygon id="Path" points="14.0315031 15.2049689 14.0315031 23.6124224 9.58091925 23.6124224 9.58091925 15.2049689"></polygon>
                    <polygon id="Path" points="9.01422112 15.7180025 11.8062112 13.2372671 14.5982012 15.7180025"></polygon>
                    <path d="M1.11765466,20.1242236 L9.58091925,20.1242236 L1.11765466,20.1242236 Z" id="Path"></path>
                    <path d="M14.1209441,20.1242236 L22.5834932,20.1242236 L14.1209441,20.1242236 Z" id="Path"></path>
                </g>
            </g>
        </g>
    </g>
</svg>