<?xml version="1.0" encoding="UTF-8"?>
<svg width="24px" height="22px" viewBox="0 0 24 22" version="1.1" xmlns="http://www.w3.org/2000/svg" xmlns:xlink="http://www.w3.org/1999/xlink">
    <!-- Generator: Sketch 49.3 (51167) - http://www.bohemiancoding.com/sketch -->
    <title>D/Icon/Features/Fully Fenced</title>
    <desc>Created with Sketch.</desc>
    <defs></defs>
    <g id="Symbols" stroke="none" stroke-width="1" fill="none" fill-rule="evenodd">
        <g id="Icon/Unique/Fully-Fenced/Grey" transform="translate(-4.000000, -5.000000)" stroke="#A5B2BA">
            <g id="D/Icon/Features/Fully-Fenced" transform="translate(4.000000, 6.000000)">
                <g id="Fully-Fenced">
                    <path d="M19.6574097,3.29097143 L21.0754286,3.29097143 L21.0754286,5.30902857 C21.0754286,5.30902857 20.1685144,5.30902854 19.6574097,5.30902854" id="Path" stroke-linecap="round" stroke-linejoin="round"></path>
                    <path d="M2.90999985,3.29097143 L4.32801875,3.29097143 L4.32801875,5.30902857 C4.32801875,5.30902857 3.42110462,5.30902854 2.90999985,5.30902854" id="Path" stroke-linecap="round" stroke-linejoin="round" transform="translate(3.619009, 4.300000) scale(-1, 1) translate(-3.619009, -4.300000) "></path>
                    <path d="M15.5,5.3 L17.5,5.3" id="Line" stroke-linecap="square"></path>
                    <path d="M15.5,3.3 L17.5,3.3" id="Line" stroke-linecap="square"></path>
                    <path d="M6.5,5.3 L8.5,5.3" id="Line" stroke-linecap="square"></path>
                    <path d="M6.5,3.3 L8.5,3.3" id="Line" stroke-linecap="square"></path>
                    <path d="M11.5,5.3 L12.5,5.3" id="Line" stroke-linecap="square"></path>
                    <path d="M11.5,3.3 L12.5,3.3" id="Line" stroke-linecap="square"></path>
                    <polygon id="Path" stroke-linecap="round" stroke-linejoin="round" points="17.5481143 6.8416 17.5481143 1.14811429 18.5568 0.196342857 19.5661714 1.14811429 19.5661714 6.8416"></polygon>
                    <polygon id="Path" stroke-linecap="round" stroke-linejoin="round" points="13.1766857 6.8416 13.1766857 1.14811429 14.1853714 0.196342857 15.1947429 1.14811429 15.1947429 6.8416"></polygon>
                    <polygon id="Path" stroke-linecap="round" stroke-linejoin="round" points="8.80525714 6.8416 8.80525714 1.14811429 9.81462857 0.196342857 10.8233143 1.14811429 10.8233143 6.8416"></polygon>
                    <polygon id="Path" stroke-linecap="round" stroke-linejoin="round" points="4.43382857 6.8416 4.43382857 1.14811429 5.44251429 0.196342857 6.45188571 1.14811429 6.45188571 6.8416"></polygon>
                    <g id="Group" transform="translate(1.000000, 7.000000)" stroke-linecap="round" stroke-linejoin="round">
                        <polygon id="Path" points="3.26651429 4.5 1.24777143 4.5 1.24777143 1.69097143 2.25714286 0.7392 3.26651429 1.69097143"></polygon>
                        <polygon id="Path" points="1.24777143 12.8036571 1.24777143 10.8999996 3.26651429 10.8999996 3.26651429 12.8036571"></polygon>
                        <path d="M1.24777143,8.80365714 L1.24777143,6.89999962" id="Path"></path>
                        <path d="M3.26000023,8.80365714 L3.26,6.89999962" id="Path"></path>
                    </g>
                    <g id="Group" transform="translate(5.400000, 7.000000)" stroke-linecap="round" stroke-linejoin="round">
                        <polygon id="Path" points="3.26651429 4.5 1.24777143 4.5 1.24777143 1.69097143 2.25714286 0.7392 3.26651429 1.69097143"></polygon>
                        <polygon id="Path" points="1.24777143 12.8036571 1.24777143 10.8999996 3.26651429 10.8999996 3.26651429 12.8036571"></polygon>
                        <path d="M1.24777143,8.80365714 L1.24777143,6.89999962" id="Path"></path>
                        <path d="M3.26000023,8.80365714 L3.26,6.89999962" id="Path"></path>
                    </g>
                    <g id="Group" transform="translate(9.700000, 7.000000)" stroke-linecap="round" stroke-linejoin="round">
                        <polygon id="Path" points="3.26651429 4.5 1.24777143 4.5 1.24777143 1.69097143 2.25714286 0.7392 3.26651429 1.69097143"></polygon>
                        <polygon id="Path" points="1.24777143 12.8036571 1.24777143 10.8999996 3.26651429 10.8999996 3.26651429 12.8036571"></polygon>
                        <path d="M1.24777143,8.80365714 L1.24777143,6.89999962" id="Path"></path>
                        <path d="M3.26000023,8.80365714 L3.26,6.89999962" id="Path"></path>
                    </g>
                    <g id="Group" transform="translate(14.100000, 7.000000)" stroke-linecap="round" stroke-linejoin="round">
                        <polygon id="Path" points="3.26651429 4.5 1.24777143 4.5 1.24777143 1.69097143 2.25714286 0.7392 3.26651429 1.69097143"></polygon>
                        <polygon id="Path" points="1.24777143 12.8036571 1.24777143 10.8999996 3.26651429 10.8999996 3.26651429 12.8036571"></polygon>
                        <path d="M1.24777143,8.80365714 L1.24777143,6.89999962" id="Path"></path>
                        <path d="M3.26000023,8.80365714 L3.26,6.89999962" id="Path"></path>
                    </g>
                    <g id="Group" transform="translate(18.500000, 7.000000)" stroke-linecap="round" stroke-linejoin="round">
                        <polygon id="Path" points="3.26651429 4.5 1.24777143 4.5 1.24777143 1.69097143 2.25714286 0.7392 3.26651429 1.69097143"></polygon>
                        <polygon id="Path" points="1.24777143 12.8036571 1.24777143 10.8999996 3.26651429 10.8999996 3.26651429 12.8036571"></polygon>
                        <path d="M1.24777143,8.80365714 L1.24777143,6.89999962" id="Path"></path>
                        <path d="M3.26000023,8.80365714 L3.26,6.89999962" id="Path"></path>
                    </g>
                    <polygon id="Stroke-5" stroke-linecap="round" stroke-linejoin="round" points="0.953142857 15.8477714 23.0468571 15.8477714 23.0468571 17.8658286 0.953142857 17.8658286"></polygon>
                    <polygon id="Stroke-8" stroke-linecap="round" stroke-linejoin="round" points="0.953142857 11.5195429 23.0468571 11.5195429 23.0468571 13.5376 0.953142857 13.5376"></polygon>
                </g>
            </g>
        </g>
    </g>
</svg>