<?xml version="1.0" encoding="UTF-8"?>
<svg width="25px" height="24px" viewBox="0 0 25 24" version="1.1" xmlns="http://www.w3.org/2000/svg" xmlns:xlink="http://www.w3.org/1999/xlink">
    <!-- Generator: Sketch 49.3 (51167) - http://www.bohemiancoding.com/sketch -->
    <title>D/Icon/Features/Furnished</title>
    <desc>Created with Sketch.</desc>
    <defs></defs>
    <g id="Symbols" stroke="none" stroke-width="1" fill="none" fill-rule="evenodd" stroke-linecap="round" stroke-linejoin="round">
        <g id="Icon/Unique/Furnished/Grey" transform="translate(-4.000000, -4.000000)" stroke="#A5B2BA">
            <g id="D/Icon/Features/Furnished" transform="translate(4.000000, 4.000000)">
                <g id="Group" transform="translate(1.000000, 0.000000)">
                    <path d="M3.28182857,18.6624 C1.54628571,18.6624 2.85462857,15.3277714 0.874971429,15.3277714" id="Furnished"></path>
                    <path d="M3.28182857,18.6624 L11.3245714,18.6624 L3.28182857,18.6624 Z" id="Path"></path>
                    <path d="M0.874971429,15.3277714 C0.391542857,15.3277714 0,14.9184 0,14.4130286 C0,13.9083429 0.391542857,13.4989714 0.874971429,13.4989714 C1.46948571,13.4989714 3.58971429,13.4989714 3.7584,16.3913143" id="Path"></path>
                    <path d="M6.00754286,14.7154286 C5.68182857,11.7874286 4.30354286,10.296 4.30354286,10.296 C4.30354286,10.296 4.21577143,9.11314286 11.3245714,9.11314286" id="Path"></path>
                    <path d="M0.539657143,13.5689143 L5.21691429,11.7853714 L0.539657143,13.5689143 Z" id="Path"></path>
                    <path d="M6.00754286,14.7154286 L3.7584,16.3913143 L6.00754286,14.7154286 Z" id="Path"></path>
                    <path d="M3.7584,16.3913143 L11.3245714,16.3913143 L3.7584,16.3913143 Z" id="Path"></path>
                    <path d="M19.368,18.6624 C21.1035429,18.6624 19.7945143,15.3277714 21.7748571,15.3277714" id="Path"></path>
                    <path d="M16.5908571,18.6624 L11.3245714,18.6624 L16.5908571,18.6624 Z" id="Path"></path>
                    <path d="M21.7748571,15.3277714 C23.3060571,15.1611429 22.5373714,13.5558857 21.3449143,13.5140571 C20.3773714,13.4804571 19.4598857,14.2395429 19.1382857,15.1296" id="Path"></path>
                    <path d="M16.5908571,9.52937143 C14.7805714,9.1392 13.1670857,9.11108571 11.3245714,9.11314286 L16.5908571,9.52937143 Z" id="Path"></path>
                    <path d="M22.1835429,13.8370286 C21.4601143,13.3254857 20.1174857,12.8091429 19.1211429,12.4292571 L22.1835429,13.8370286 Z" id="Path"></path>
                    <path d="M16.5908571,16.3913143 L11.3245714,16.3913143 L16.5908571,16.3913143 Z" id="Path"></path>
                    <polygon id="Path" points="16.5908571 18.6624 3.28182857 18.6624 3.28182857 20.6098286 16.5908571 20.6098286"></polygon>
                    <path d="M16.2582857,22.6285714 L19.6224,22.6285714 L16.2582857,22.6285714 Z" id="Path"></path>
                    <path d="M21.9634286,4.54902857 C21.8365714,2.38628571 20.0866286,0.670628571 17.9403429,0.670628571 C15.7940571,0.670628571 14.0441143,2.38628571 13.9172571,4.54902857 L21.9634286,4.54902857 L21.9634286,4.54902857 Z" id="Path"></path>
                    <path d="M17.9403429,4.54902857 L17.9403429,22.6285714 L17.9403429,4.54902857 Z" id="Path"></path>
                    <path d="M21.0884571,4.54902857 L21.0884571,7.59154286 L21.0884571,4.54902857 Z" id="Path"></path>
                    <polyline id="Path" points="2.80045714 10.0491429 1.72937143 10.0491429 1.72937143 2.41097143 11.3362286 2.41097143 11.3362286 6.97714286"></polyline>
                    <polygon id="Path" points="8.46582857 2.41097143 6.5328 0 4.59977143 2.41097143"></polygon>
                    <polyline id="Path" points="3.36 8.0304 3.36 3.90582857 9.7056 3.90582857 9.7056 6.97714286"></polyline>
                </g>
            </g>
        </g>
    </g>
</svg>