<?xml version="1.0" encoding="UTF-8"?>
<svg width="23px" height="21px" viewBox="0 0 23 21" version="1.1" xmlns="http://www.w3.org/2000/svg" xmlns:xlink="http://www.w3.org/1999/xlink">
    <!-- Generator: Sketch 49.3 (51167) - http://www.bohemiancoding.com/sketch -->
    <title>D/Icon/Features/Gas Heating</title>
    <desc>Created with Sketch.</desc>
    <defs></defs>
    <g id="Symbols" stroke="none" stroke-width="1" fill="none" fill-rule="evenodd" stroke-linecap="round" stroke-linejoin="round">
        <g id="Icon/Unique/Gas-Heating/Grey" transform="translate(-4.000000, -6.000000)" stroke="#A5B2BA">
            <g id="D/Icon/Features/Gas-Heating" transform="translate(5.000000, 6.000000)">
                <g id="Gas-Heating">
                    <path d="M21.3620571,4.1472 L21.3709714,4.1472 L21.3709714,18.3572571 L21.3620571,18.3572571 C21.3620571,19.1369143 16.5819429,19.7691429 10.6854857,19.7691429 C4.78902857,19.7691429 0.00891428571,19.1369143 0.00891428571,18.3572571"></path>
                    <path d="M0,18.3572571 L0,4.1472 L0.00891428571,4.1472 C0.00891428571,3.36754286 4.78902857,2.73531429 10.6854857,2.73531429 C11.2100571,2.73531429 11.7250286,2.7408 12.2290286,2.7504" id="Path"></path>
                    <polyline id="Path" points="19.7657143 10.5661714 19.7657143 17.112 1.60594286 17.112 1.60594286 5.39245714 11.4445714 5.39245714"></polyline>
                    <path d="M3.38331429,7.31451429 L11.4445714,7.31451429" id="Path"></path>
                    <path d="M3.38331429,9.2832 L12.5142857,9.2832" id="Path"></path>
                    <path d="M3.38331429,11.2518857 L17.9876571,11.2518857" id="Path"></path>
                    <path d="M3.38331429,13.2205714 L17.9876571,13.2205714" id="Path"></path>
                    <path d="M3.38331429,15.1892571 L17.9876571,15.1892571" id="Path"></path>
                    <path d="M16.5421714,0 C16.5421714,0 19.9618286,3.49097143 19.9618286,6.15291429 C19.9618286,8.04137143 18.4306286,9.57188571 16.5421714,9.57188571 C14.6537143,9.57188571 13.1232,8.04137143 13.1232,6.15291429 C13.1232,3.49097143 16.5421714,0 16.5421714,0" id="Path"></path>
                    <path d="M16.5421714,4.17531429 C16.5421714,4.17531429 18.4704,6.14331429 18.4704,7.64434286 C18.4704,8.70925714 17.6070857,9.57188571 16.5421714,9.57188571 C15.4779429,9.57188571 14.6146286,8.70925714 14.6146286,7.64434286 C14.6146286,6.14331429 16.5421714,4.17531429 16.5421714,4.17531429" id="Path"></path>
                </g>
            </g>
        </g>
    </g>
</svg>