<?xml version="1.0" encoding="UTF-8"?>
<svg width="26px" height="19px" viewBox="0 0 26 19" version="1.1" xmlns="http://www.w3.org/2000/svg" xmlns:xlink="http://www.w3.org/1999/xlink">
    <!-- Generator: Sketch 49.3 (51167) - http://www.bohemiancoding.com/sketch -->
    <title>D/Icon/Features/Gym</title>
    <desc>Created with Sketch.</desc>
    <defs></defs>
    <g id="Symbols" stroke="none" stroke-width="1" fill="none" fill-rule="evenodd" stroke-linecap="round" stroke-linejoin="round">
        <g id="Icon/Unique/Gym/Grey" transform="translate(-3.000000, -6.000000)" stroke="#A5B2BA">
            <g id="D/Icon/Features/Gym" transform="translate(4.000000, 7.000000)">
                <g id="Gym">
                    <path d="M7.56670807,16.1809491 C7.56670807,16.5744894 7.2447205,16.896477 6.85118012,16.896477 L5.18256894,16.896477 C4.78902857,16.896477 4.46704099,16.5744894 4.46704099,16.1809491 L4.46704099,0.71552795 C4.46704099,0.321987578 4.78902857,0 5.18256894,0 L6.85118012,0 C7.2447205,0 7.56670807,0.321987578 7.56670807,0.71552795 L7.56670807,16.1809491 L7.56670807,16.1809491 Z"></path>
                    <path d="M2.03639255,14.9652671 C2.03639255,15.3588075 2.35838012,15.680795 2.7519205,15.680795 L3.75151304,15.680795 C4.14505342,15.680795 4.46704099,15.3588075 4.46704099,14.9652671 L4.46704099,1.93120994 C4.46704099,1.53766957 4.14505342,1.21568199 3.75151304,1.21568199 L2.7519205,1.21568199 C2.35838012,1.21568199 2.03639255,1.53766957 2.03639255,1.93120994 L2.03639255,14.9652671 L2.03639255,14.9652671 Z" id="Path"></path>
                    <polygon id="Path" points="0 6.40039752 2.03639255 6.40039752 2.03639255 10.4960795 0 10.4960795"></polygon>
                    <path d="M16.0457143,0.71552795 C16.0457143,0.321987578 16.3677019,0 16.7612422,0 L18.4298534,0 C18.8233938,0 19.1453814,0.321987578 19.1453814,0.71552795 L19.1453814,16.1809491 C19.1453814,16.5744894 18.8233938,16.896477 18.4298534,16.896477 L16.7612422,16.896477 C16.3677019,16.896477 16.0457143,16.5744894 16.0457143,16.1809491 L16.0457143,0.71552795 L16.0457143,0.71552795 Z" id="Path"></path>
                    <path d="M21.5760298,1.93120994 C21.5760298,1.53766957 21.2540422,1.21568199 20.8605019,1.21568199 L19.8609093,1.21568199 C19.4673689,1.21568199 19.1453814,1.53766957 19.1453814,1.93120994 L19.1453814,14.9652671 C19.1453814,15.3588075 19.4673689,15.680795 19.8609093,15.680795 L20.8605019,15.680795 C21.2540422,15.680795 21.5760298,15.3588075 21.5760298,14.9652671 L21.5760298,1.93120994 L21.5760298,1.93120994 Z" id="Path"></path>
                    <polygon id="Path" points="21.5760298 6.40039752 23.6124224 6.40039752 23.6124224 10.4960795 21.5760298 10.4960795"></polygon>
                    <polygon id="Path" points="7.56670807 6.41971677 16.0449988 6.41971677 16.0449988 10.4767602 7.56670807 10.4767602"></polygon>
                </g>
            </g>
        </g>
    </g>
</svg>