<?xml version="1.0" encoding="UTF-8"?>
<svg width="24px" height="24px" viewBox="0 0 24 24" version="1.1" xmlns="http://www.w3.org/2000/svg" xmlns:xlink="http://www.w3.org/1999/xlink">
    <!-- Generator: Sketch 49.3 (51167) - http://www.bohemiancoding.com/sketch -->
    <title>D/Icon/Features/Hydronic Heating</title>
    <desc>Created with Sketch.</desc>
    <defs></defs>
    <g id="Symbols" stroke="none" stroke-width="1" fill="none" fill-rule="evenodd" stroke-linecap="round" stroke-linejoin="round">
        <g id="Icon/Unique/Hydronic-Heating/Grey" transform="translate(-4.000000, -4.000000)" stroke="#A5B2BA">
            <g id="D/Icon/Features/Hydronic-Heating" transform="translate(4.000000, 4.000000)">
                <g id="Hydronic-Heating">
                    <path d="M18.5650286,12.4549562 L18.5650286,21.1405714" id="Path"></path>
                    <path d="M5.18811429,2.85942857 L5.18811429,21.1405714" id="Path"></path>
                    <path d="M11.8765714,2.85942857 L11.8765714,21.1405714" id="Path"></path>
                    <path d="M3.08228571,9.73714286 C1.83291429,9.73714286 0.819428571,8.72365714 0.819428571,7.47428571 C0.819428571,6.22422857 1.83291429,5.21142857 3.08228571,5.21142857" id="Path"></path>
                    <path d="M14.3237303,5.21142857 L3.08228571,5.21142857" id="Path"></path>
                    <path d="M14.3328856,9.73714286 L3.08228571,9.73714286" id="Path"></path>
                    <path d="M3.08228571,18.7885714 C1.83291429,18.7885714 0.819428571,17.7757714 0.819428571,16.5257143 C0.819428571,15.2763429 1.83291429,14.2628571 3.08228571,14.2628571" id="Path"></path>
                    <path d="M20.6708571,18.7885714 L3.08228571,18.7885714" id="Path"></path>
                    <path d="M20.6708571,14.2628571 C21.9202286,14.2628571 22.9337143,13.2500571 22.9337143,12 C22.9337143,10.7499429 22.2388916,10.4608154 22.2388916,10.4608154" id="Path"></path>
                    <path d="M3.08228571,14.2628571 L20.6708571,14.2628571" id="Path"></path>
                    <path d="M22.0419921,4.4349976 C22.0419921,4.4349976 22.9308571,4.20195536 22.9308571,2.95071439 C22.9308571,1.69947342 21.9186511,0.685714286 20.6708571,0.685714286" id="Path"></path>
                    <path d="M20.6708571,23.3142857 L3.08228571,23.3142857" id="Path"></path>
                    <path d="M20.6708571,23.3142857 C21.9202286,23.3142857 22.9337143,22.3014857 22.9337143,21.0514286 C22.9337143,19.8020571 21.9202286,18.7885714 20.6708571,18.7885714" id="Path"></path>
                    <path d="M3.08228571,0.685714286 L20.6708571,0.685714286" id="Path"></path>
                    <path d="M23.1805714,7.47428571 C23.1805714,10.0230857 21.1138286,12.0891429 18.5650286,12.0891429 C16.0162286,12.0891429 13.9501714,10.0230857 13.9501714,7.47428571 C13.9501714,4.92548571 16.0162286,2.85942857 18.5650286,2.85942857 C21.1138286,2.85942857 23.1805714,4.92548571 23.1805714,7.47428571 L23.1805714,7.47428571 Z" id="Path"></path>
                    <path d="M18.9325714,4.9632 C18.7028571,5.51177143 18.1090286,5.66537143 18.1090286,6.46285714 C18.1090286,7.45234286 19.0210286,7.45234286 19.0210286,8.44182857 C19.0210286,9.25988571 18.3977143,9.40182857 18.1817143,9.98537143" id="Path"></path>
                    <path d="M16.6916571,5.91771429 C16.5490286,6.25782857 16.1814857,6.35314286 16.1814857,6.84685714 C16.1814857,7.46057143 16.7465143,7.46057143 16.7465143,8.07428571 C16.7465143,8.58102857 16.3597714,8.6688 16.2260571,9.03085714" id="Path"></path>
                    <path d="M20.8944,5.91771429 C20.7517714,6.25782857 20.3842286,6.35314286 20.3842286,6.84685714 C20.3842286,7.46057143 20.9492571,7.46057143 20.9492571,8.07428571 C20.9492571,8.58102857 20.5625143,8.6688 20.4288,9.03085714" id="Path"></path>
                </g>
            </g>
        </g>
    </g>
</svg>