<?xml version="1.0" encoding="UTF-8"?>
<svg width="26px" height="26px" viewBox="0 0 26 26" version="1.1" xmlns="http://www.w3.org/2000/svg" xmlns:xlink="http://www.w3.org/1999/xlink">
    <!-- Generator: Sketch 49.3 (51167) - http://www.bohemiancoding.com/sketch -->
    <title>D/Icon/Features/Inside Spa</title>
    <desc>Created with Sketch.</desc>
    <defs></defs>
    <g id="Symbols" stroke="none" stroke-width="1" fill="none" fill-rule="evenodd" stroke-linecap="round" stroke-linejoin="round">
        <g id="Icon/Unique/Inside-Spa/Grey" transform="translate(-3.000000, -3.000000)" stroke="#A5B2BA">
            <g id="D/Icon/Features/Inside-Spa" transform="translate(4.000000, 4.000000)">
                <g id="Inside-Spa">
                    <path d="M8.60413704,8.42690909 C7.68020853,7.53578446 7.10545455,6.28449361 7.10545455,4.89890909 C7.10545455,2.19345455 9.29672727,0 12,0 C14.7032727,0 16.8945455,2.19345455 16.8945455,4.89890909 C16.8945455,6.28449361 16.3197915,7.53578446 15.395863,8.42690909 L23.2727273,8.42690909 C23.6727273,8.42690909 24,8.75418182 24,9.15418182 L24,10.5032727 C24,10.9032727 23.6727273,11.2305455 23.2727273,11.2305455 L0.727272727,11.2305455 C0.327272727,11.2305455 0,10.9032727 0,10.5032727 L0,9.15418182 C0,8.75418182 0.327272727,8.42690909 0.727272727,8.42690909 L8.60413704,8.42690909 Z" id="Stroke-1"></path>
                    <path d="M16.8945455,4.89890909 C16.8945455,7.60436364 14.7032727,9.79781818 12,9.79781818 C9.29672727,9.79781818 7.10545455,7.60436364 7.10545455,4.89890909 C7.10545455,2.19345455 9.29672727,0 12,0 C14.7032727,0 16.8945455,2.19345455 16.8945455,4.89890909 L16.8945455,4.89890909 Z" id="Stroke-4"></path>
                    <polygon id="Path" points="0.909090909 24 23.0909091 24 23.0909091 11.2305455 0.909090909 11.2305455"></polygon>
                    <path d="M24,24 L0,24 L24,24 Z" id="Path"></path>
                    <path d="M12.3890909,2.23272727 C12.1461818,2.81527273 11.5163636,2.97890909 11.5163636,3.82472727 C11.5163636,4.87490909 12.4836364,4.87490909 12.4836364,5.92581818 C12.4836364,6.79418182 11.8225455,6.94472727 11.5934545,7.56436364" id="Path"></path>
                    <path d="M10.0123636,3.24654545 C9.86181818,3.60727273 9.47127273,3.70836364 9.47127273,4.23272727 C9.47127273,4.88436364 10.0712727,4.88436364 10.0712727,5.53527273 C10.0712727,6.07345455 9.66109091,6.16727273 9.51927273,6.55127273" id="Path"></path>
                    <path d="M14.4698182,3.24654545 C14.3192727,3.60727273 13.9287273,3.70836364 13.9287273,4.23272727 C13.9287273,4.88436364 14.5287273,4.88436364 14.5287273,5.53527273 C14.5287273,6.07345455 14.1185455,6.16727273 13.9767273,6.55127273" id="Path"></path>
                    <path d="M4.23781818,13.0552727 L4.23781818,22.0552727 L4.23781818,13.0552727 Z" id="Path"></path>
                    <path d="M7.34254545,13.0552727 L7.34254545,22.0552727 L7.34254545,13.0552727 Z" id="Path"></path>
                    <path d="M10.448,13.0552727 L10.448,22.0552727 L10.448,13.0552727 Z" id="Path"></path>
                    <path d="M13.5527273,13.0552727 L13.5527273,22.0552727 L13.5527273,13.0552727 Z" id="Path"></path>
                    <path d="M16.6567273,13.0552727 L16.6567273,22.0552727 L16.6567273,13.0552727 Z" id="Path"></path>
                    <path d="M19.7621818,13.0552727 L19.7621818,22.0552727 L19.7621818,13.0552727 Z" id="Path"></path>
                    <path d="M0.909090909,8.42690909 L0.909090909,0 L0.909090909,8.42690909 Z" id="Path"></path>
                    <path d="M23.0909091,8.42690909 L23.0909091,0 L23.0909091,8.42690909 Z" id="Path"></path>
                    <path d="M0.909090909,0 L7.59490909,0 L0.909090909,0 Z" id="Path"></path>
                    <path d="M16.4050909,0 L23.0909091,0 L16.4050909,0 Z" id="Path"></path>
                </g>
            </g>
        </g>
    </g>
</svg>