<?xml version="1.0" encoding="UTF-8"?>
<svg width="24px" height="24px" viewBox="0 0 24 24" version="1.1" xmlns="http://www.w3.org/2000/svg" xmlns:xlink="http://www.w3.org/1999/xlink">
    <!-- Generator: Sketch 49.3 (51167) - http://www.bohemiancoding.com/sketch -->
    <title>D/Icon/Features/Intercom</title>
    <desc>Created with Sketch.</desc>
    <defs></defs>
    <g id="Symbols" stroke="none" stroke-width="1" fill="none" fill-rule="evenodd" stroke-linecap="round" stroke-linejoin="round">
        <g id="Icon/Unique/Intercom/Grey" transform="translate(-4.000000, -4.000000)" stroke="#A5B2BA">
            <g id="D/Icon/Features/Intercom" transform="translate(4.000000, 4.000000)">
                <g id="Intercom">
                    <path d="M2.79702857,2.21348571 L2.79702857,0.685714286 L9.91131429,0.685714286 L9.91131429,2.21348571 L23.3142857,2.21348571 L23.3142857,21.7872 L9.91131429,21.7872 L9.91131429,23.3142857 L2.79702857,23.3142857 L2.79702857,21.7872 L0.685714286,21.7872 L0.685714286,2.21348571 L2.79702857,2.21348571 Z M9.91131429,4.1664 L9.91131429,11.7949714 L21.3627429,11.7949714 L21.3627429,4.1664 L9.91131429,4.1664 Z" id="Stroke-1"></path>
                    <path d="M18.0795429,14.5234286 L13.4043429,14.5234286 L18.0795429,14.5234286 Z" id="Path"></path>
                    <path d="M21.3627429,14.5234286 L19.8466286,14.5234286 L21.3627429,14.5234286 Z" id="Path"></path>
                    <path d="M18.0795429,16.9522286 L13.4043429,16.9522286 L18.0795429,16.9522286 Z" id="Path"></path>
                    <path d="M21.3627429,16.9522286 L19.8466286,16.9522286 L21.3627429,16.9522286 Z" id="Path"></path>
                    <path d="M18.0795429,19.3803429 L13.4043429,19.3803429 L18.0795429,19.3803429 Z" id="Path"></path>
                    <path d="M21.3627429,19.3803429 L19.8466286,19.3803429 L21.3627429,19.3803429 Z" id="Path"></path>
                    <path d="M16.8253714,7.21714286 C16.8253714,7.99474286 16.1952,8.62491429 15.4176,8.62491429 C14.64,8.62491429 14.0098286,7.99474286 14.0098286,7.21714286 C14.0098286,6.43954286 14.64,5.80937143 15.4176,5.80937143 C16.1952,5.80937143 16.8253714,6.43954286 16.8253714,7.21714286 L16.8253714,7.21714286 Z" id="Path"></path>
                    <path d="M12.2688,11.7661714 C12.2688,10.0272 13.6786286,8.61805714 15.4176,8.61805714 C17.1565714,8.61805714 18.5657143,10.0272 18.5657143,11.7661714 L12.2688,11.7661714 Z" id="Path"></path>
                    <polygon id="Stroke-4" points="2.79702857 0.685714286 9.91131429 0.685714286 9.91131429 23.3142857 2.79702857 23.3142857"></polygon>
                </g>
            </g>
        </g>
    </g>
</svg>