<?xml version="1.0" encoding="UTF-8"?>
<svg width="26px" height="24px" viewBox="0 0 26 24" version="1.1" xmlns="http://www.w3.org/2000/svg" xmlns:xlink="http://www.w3.org/1999/xlink">
    <!-- Generator: Sketch 49.3 (51167) - http://www.bohemiancoding.com/sketch -->
    <title>D/Icon/Features/Living Areas</title>
    <desc>Created with Sketch.</desc>
    <defs></defs>
    <g id="Symbols" stroke="none" stroke-width="1" fill="none" fill-rule="evenodd" stroke-linecap="round" stroke-linejoin="round">
        <g id="Icon/Unique/Living-Areas/Grey" transform="translate(-3.000000, -4.000000)" stroke="#A5B2BA">
            <g id="D/Icon/Features/Living-Areas" transform="translate(4.000000, 5.000000)">
                <g id="Living-Areas">
                    <path d="M3.84166957,17.1633689 C1.81028571,17.1633689 3.34223106,11.8577292 1.0239205,11.8577292"></path>
                    <path d="M3.84166957,17.1633689 L11.8062112,17.1633689" id="Path"></path>
                    <path d="M1.0239205,11.8577292 C0.458653416,11.8577292 0,11.3182211 0,10.6513491 C0,9.98519255 0.458653416,9.44496894 1.0239205,9.44496894 C1.72012919,9.44496894 4.20229565,9.44496894 4.40049689,13.2623106" id="Path"></path>
                    <path d="M6.17357516,9.58735901 C5.79219876,5.7242236 4.17868323,3.75509068 4.17868323,3.75509068 C4.17868323,3.75509068 3.48319006,0 11.8062112,0" id="Path"></path>
                    <path d="M0.63181118,9.53727205 L5.24839752,5.72136149" id="Path"></path>
                    <path d="M4.40049689,13.2623106 L6.17357516,9.58735901 C6.17357516,9.58735901 11.7375205,8.24645963 17.4388472,9.58735901" id="Path"></path>
                    <path d="M4.40049689,13.2623106 L11.8062112,13.2623106" id="Path"></path>
                    <polyline id="Path" points="4.08351801 17.1633689 4.08351801 21.6132373 11.8062112 21.6132373"></polyline>
                    <path d="M19.7707528,17.1633689 C21.8021366,17.1633689 20.2701913,11.8577292 22.5885019,11.8577292" id="Path"></path>
                    <path d="M19.7707528,17.1633689 L11.8062112,17.1633689" id="Path"></path>
                    <path d="M22.5885019,11.8577292 C23.1537689,11.8577292 23.6124224,11.3182211 23.6124224,10.6513491 C23.6124224,9.98519255 23.1537689,9.44496894 22.5885019,9.44496894 C21.8922932,9.44496894 19.4101267,9.44496894 19.2119255,13.2623106" id="Path"></path>
                    <path d="M17.4388472,9.58735901 C17.8202236,5.7242236 19.4337391,3.75509068 19.4337391,3.75509068 C19.4337391,3.75509068 20.1292323,0 11.8062112,0" id="Path"></path>
                    <path d="M22.9806112,9.53727205 L18.3640248,5.72136149" id="Path"></path>
                    <polyline id="Path" points="17.4388472 9.58735901 19.2119255 13.2623106 11.8062112 13.2623106"></polyline>
                    <polyline id="Path" points="19.5289043 17.1633689 19.5289043 21.6132373 11.8062112 21.6132373"></polyline>
                    <path d="M4.08351801,18.9908273 L19.5289043,18.9908273" id="Path"></path>
                </g>
            </g>
        </g>
    </g>
</svg>