<?xml version="1.0" encoding="UTF-8"?>
<svg width="26px" height="26px" viewBox="0 0 26 26" version="1.1" xmlns="http://www.w3.org/2000/svg" xmlns:xlink="http://www.w3.org/1999/xlink">
    <!-- Generator: Sketch 49.3 (51167) - http://www.bohemiancoding.com/sketch -->
    <title>D/Icon/Features/Open Spaces</title>
    <desc>Created with Sketch.</desc>
    <defs></defs>
    <g id="Symbols" stroke="none" stroke-width="1" fill="none" fill-rule="evenodd" stroke-linecap="round" stroke-linejoin="round">
        <g id="Icon/Unique/Open-Spaces/Grey" transform="translate(-3.000000, -3.000000)" stroke="#A5B2BA">
            <g id="D/Icon/Features/Open-Spaces" transform="translate(4.000000, 4.000000)">
                <g id="Open-Spaces">
                    <path d="M23.896,16.2349091 C23.896,13.3061818 21.6814545,10.9316364 18.9498182,10.9316364 C16.4254545,10.9316364 14.3469091,12.96 14.0450909,15.5789091 C13.5694545,15.3476364 13.0465455,15.2109091 12.4901818,15.2109091 C11.8872727,15.2109091 11.3250909,15.3767273 10.8196364,15.6465455 C9.75563636,14.0123636 7.99127273,12.9410909 5.99127273,12.9410909 C2.73963636,12.9410909 0.104,15.7665455 0.104,19.2530909"></path>
                    <path d="M24,8.92509091 C24,6.77018182 22.3709091,5.02327273 20.3607273,5.02327273 C18.3512727,5.02327273 16.7221818,6.77018182 16.7221818,8.92509091 C16.7221818,8.98181818 16.7352727,9.03490909 16.7374545,9.09090909 C16.4196364,8.99345455 16.0901818,8.92509091 15.7432727,8.92509091 C15.2785455,8.92509091 14.8378182,9.02690909 14.4290909,9.19781818 C13.7018182,7.58109091 12.1636364,6.46327273 10.3774545,6.46327273 C8.46836364,6.46327273 6.84072727,7.73963636 6.18690909,9.53818182 C5.53163636,8.82109091 4.62036364,8.37381818 3.61018182,8.37381818 C1.616,8.37381818 0,10.1069091 0,12.2443636" id="Path"></path>
                    <path d="M22.1272727,2.536 C21.3083636,1.01963636 19.7789091,0 18.0276364,0 C15.8174545,0 13.9665455,1.62618182 13.4443636,3.82181818 C12.792,3.09018182 11.8778182,2.62981818 10.8596364,2.62981818 C10.0021818,2.62981818 9.22545455,2.96654545 8.60872727,3.50472727 C8.176,1.53745455 6.53163636,0.0712727273 4.56436364,0.0712727273 C2.26690909,0.0712727273 0.405090909,2.06763636 0.405090909,4.53018182" id="Path"></path>
                    <path d="M1.62545455,21.1243636 L4.98909091,21.1243636" id="Path"></path>
                    <path d="M8.216,24 L10.1250909,24" id="Path"></path>
                    <path d="M9.872,21.7098182 L11.968,21.7098182" id="Path"></path>
                    <path d="M18.8530909,18.3309091 L22.1272727,18.3309091" id="Path"></path>
                    <path d="M16.4436364,24 L17.7163636,24" id="Path"></path>
                    <path d="M12,19.5650909 L13.2727273,19.5650909" id="Path"></path>
                    <path d="M14.9890909,21.7098182 L16.4436364,21.7098182" id="Path"></path>
                    <path d="M5.80727273,18.7629091 L7.26181818,18.7629091" id="Path"></path>
                    <path d="M20.5803636,24 L22.6276364,24" id="Path"></path>
                    <path d="M2.17090909,23.7563636 L3.85236364,23.7563636" id="Path"></path>
                    <path d="M18.4283636,21.1243636 L19.8829091,21.1243636" id="Path"></path>
                </g>
            </g>
        </g>
    </g>
</svg>