<?xml version="1.0" encoding="UTF-8"?>
<svg width="25px" height="25px" viewBox="0 0 25 25" version="1.1" xmlns="http://www.w3.org/2000/svg" xmlns:xlink="http://www.w3.org/1999/xlink">
    <!-- Generator: Sketch 49.3 (51167) - http://www.bohemiancoding.com/sketch -->
    <title>D/Icon/Features/Open Fire Place</title>
    <desc>Created with Sketch.</desc>
    <defs></defs>
    <g id="Symbols" stroke="none" stroke-width="1" fill="none" fill-rule="evenodd" stroke-linecap="round" stroke-linejoin="round">
        <g id="Icon/Unique/Open-Fire-Place/Grey" transform="translate(-4.000000, -4.000000)" stroke="#A5B2BA">
            <g id="D/Icon/Features/Open-Fire-Place" transform="translate(5.000000, 5.000000)">
                <g id="Open-Fire-Place">
                    <polygon points="21.8043429 17.9958857 0.824228571 17.9958857 0.8304 4.1664 21.8098286 4.1664"></polygon>
                    <polygon id="Path" points="22.6285714 0 0 0 0.00617142857 4.1664 22.6347429 4.1664"></polygon>
                    <polygon id="Path" points="0 22.6285714 22.6285714 22.6285714 22.6285714 17.9958857 0 17.9958857"></polygon>
                    <path d="M5.64822857,11.0112 C5.64822857,8.00022857 8.18468571,5.55908571 11.3142857,5.55908571 C14.4438857,5.55908571 16.9803429,8.00022857 16.9803429,11.0112" id="Path"></path>
                    <path d="M5.64822857,11.0112 L5.64822857,17.9958857 L5.64822857,11.0112 Z" id="Path"></path>
                    <path d="M16.9803429,11.0112 L16.9803429,17.9958857 L16.9803429,11.0112 Z" id="Path"></path>
                    <path d="M1.17325714,20.3108571 L21.3161143,20.3108571 L1.17325714,20.3108571 Z" id="Path"></path>
                    <path d="M3.01645714,19.0820571 L3.01645714,21.5389714 L3.01645714,19.0820571 Z" id="Path"></path>
                    <path d="M6.30788571,19.0820571 L6.30788571,21.5389714 L6.30788571,19.0820571 Z" id="Path"></path>
                    <path d="M9.59931429,19.0820571 L9.59931429,21.5389714 L9.59931429,19.0820571 Z" id="Path"></path>
                    <path d="M12.8907429,19.0820571 L12.8907429,21.5389714 L12.8907429,19.0820571 Z" id="Path"></path>
                    <path d="M16.1821714,19.0820571 L16.1821714,21.5389714 L16.1821714,19.0820571 Z" id="Path"></path>
                    <path d="M19.4736,19.0820571 L19.4736,21.5389714 L19.4736,19.0820571 Z" id="Path"></path>
                    <path d="M1.17325714,2.11062857 L21.3161143,2.11062857 L1.17325714,2.11062857 Z" id="Path"></path>
                    <path d="M3.01645714,1.16777143 L3.01645714,3.05348571 L3.01645714,1.16777143 Z" id="Path"></path>
                    <path d="M6.30788571,1.16777143 L6.30788571,3.05348571 L6.30788571,1.16777143 Z" id="Path"></path>
                    <path d="M9.59931429,1.16777143 L9.59931429,3.05348571 L9.59931429,1.16777143 Z" id="Path"></path>
                    <path d="M12.8907429,1.16777143 L12.8907429,3.05348571 L12.8907429,1.16777143 Z" id="Path"></path>
                    <path d="M16.1821714,1.16777143 L16.1821714,3.05348571 L16.1821714,1.16777143 Z" id="Path"></path>
                    <path d="M19.4736,1.16777143 L19.4736,3.05348571 L19.4736,1.16777143 Z" id="Path"></path>
                    <path d="M8.03108571,17.8093714 C6.62742857,16.2699429 8.22994286,14.2374857 8.01737143,12.5019429 C8.6352,12.6946286 9.04114286,13.4859429 9.19268571,13.9378286 C9.21805714,13.1897143 9.39908571,12.0912 9.67131429,11.4089143 C10.1574857,10.1883429 11.0283429,9.43885714 11.9225143,8.53782857 C11.6742857,8.92594286 11.7339429,11.6125714 12.3408,12.2022857 C12.5794286,11.6022857 13.5558857,10.8521143 14.3129143,11.0660571 C13.8150857,13.8308571 16.0457143,14.2806857 14.4061714,17.9232 L8.03108571,17.8093714 Z" id="Path"></path>
                    <path d="M10.2685714,17.8916571 C9.28182857,16.7650286 10.7424,14.9163429 11.3046857,13.9515429 C11.9211429,14.8107429 13.1225143,16.8027429 12.2832,17.8916571 L10.2685714,17.8916571 Z" id="Path"></path>
                </g>
            </g>
        </g>
    </g>
</svg>