<?xml version="1.0" encoding="UTF-8"?>
<svg width="25px" height="25px" viewBox="0 0 25 25" version="1.1" xmlns="http://www.w3.org/2000/svg" xmlns:xlink="http://www.w3.org/1999/xlink">
    <!-- Generator: Sketch 49.3 (51167) - http://www.bohemiancoding.com/sketch -->
    <title>D/Icon/Features/Outdoor Entertaining Area</title>
    <desc>Created with Sketch.</desc>
    <defs></defs>
    <g id="Symbols" stroke="none" stroke-width="1" fill="none" fill-rule="evenodd">
        <g id="Icon/Unique/Entertaining-Area/Grey" transform="translate(-3.000000, -3.000000)">
            <g id="D/Icon/Features/Outdoor-Entertaining-Area" transform="translate(4.000000, 3.000000)">
                <g id="Entertaining-Area">
                    <path d="M17.6435532,14.1965299 C17.0361351,16.8812883 14.6356364,18.8860675 11.7668571,18.8860675 C8.86516364,18.8860675 6.44222338,16.8349091 5.86996364,14.1030234" id="Stroke-1" stroke="#A5B2BA" stroke-linecap="round" stroke-linejoin="round"></path>
                    <path d="M5.86996364,14.0214857 L17.6794597,14.0214857" id="Path" stroke="#A5B2BA" stroke-linecap="round" stroke-linejoin="round"></path>
                    <path d="M14.832374,18.3549506 L17.2785039,24.4149195" id="Path" stroke="#A5B2BA" stroke-linecap="round" stroke-linejoin="round"></path>
                    <path d="M8.77240519,18.3549506 L6.32627532,24.4149195" id="Path" stroke="#A5B2BA" stroke-linecap="round" stroke-linejoin="round"></path>
                    <path d="M3.50911169,15.1293506 L6.06520519,15.1293506" id="Path" stroke="#A5B2BA" stroke-linecap="round" stroke-linejoin="round"></path>
                    <path d="M5.82807273,11.8386701 C6.31355844,8.99831688 8.78811429,6.8356987 11.7668571,6.8356987 C14.7837506,6.8356987 17.2396052,9.00130909 17.6794597,11.8955221" id="Path" stroke="#A5B2BA" stroke-linecap="round" stroke-linejoin="round"></path>
                    <path d="M3.50911169,11.8955221 L17.6794597,11.8955221" id="Path" stroke="#A5B2BA" stroke-linecap="round" stroke-linejoin="round"></path>
                    <path d="M2.48128831,11.8955221 C2.48128831,11.6112623 2.71094026,11.3816104 2.9952,11.3816104 C3.27871169,11.3816104 3.50911169,11.6112623 3.50911169,11.8955221 C3.50911169,12.1790338 3.27871169,12.4094338 2.9952,12.4094338 C2.71094026,12.4094338 2.48128831,12.1790338 2.48128831,11.8955221" id="Fill-3"></path>
                    <path d="M2.48128831,11.8955221 C2.48128831,11.6112623 2.71094026,11.3816104 2.9952,11.3816104 C3.27871169,11.3816104 3.50911169,11.6112623 3.50911169,11.8955221 C3.50911169,12.1790338 3.27871169,12.4094338 2.9952,12.4094338 C2.71094026,12.4094338 2.48128831,12.1790338 2.48128831,11.8955221 L2.48128831,11.8955221 Z" id="Stroke-4" stroke="#A5B2BA" stroke-linecap="round" stroke-linejoin="round"></path>
                    <path d="M2.48128831,15.1293506 C2.48128831,14.845839 2.71094026,14.615439 2.9952,14.615439 C3.27871169,14.615439 3.50911169,14.845839 3.50911169,15.1293506 C3.50911169,15.4128623 3.27871169,15.6432623 2.9952,15.6432623 C2.71094026,15.6432623 2.48128831,15.4128623 2.48128831,15.1293506" id="Fill-5"></path>
                    <path d="M2.48128831,15.1293506 C2.48128831,14.845839 2.71094026,14.615439 2.9952,14.615439 C3.27871169,14.615439 3.50911169,14.845839 3.50911169,15.1293506 C3.50911169,15.4128623 3.27871169,15.6432623 2.9952,15.6432623 C2.71094026,15.6432623 2.48128831,15.4128623 2.48128831,15.1293506 L2.48128831,15.1293506 Z" id="Stroke-6" stroke="#A5B2BA" stroke-linecap="round" stroke-linejoin="round"></path>
                    <path d="M11.995013,0 C11.7451636,0.59918961 11.0973506,0.766753247 11.0973506,1.63748571 C11.0973506,2.71767273 12.0922597,2.71767273 12.0922597,3.79785974 C12.0922597,4.69178182 11.4122805,4.84588052 11.1766442,5.48396883" id="Path" stroke="#A5B2BA" stroke-linecap="round" stroke-linejoin="round"></path>
                    <path d="M9.55037922,1.04203636 C9.39553247,1.41307013 8.99382857,1.5177974 8.99382857,2.05714286 C8.99382857,2.72664935 9.61097143,2.72664935 9.61097143,3.3969039 C9.61097143,3.95046234 9.18907013,4.04621299 9.0432,4.44193247" id="Path" stroke="#A5B2BA" stroke-linecap="round" stroke-linejoin="round"></path>
                    <path d="M14.1351896,1.04203636 C13.9803429,1.41307013 13.578639,1.5177974 13.578639,2.05714286 C13.578639,2.72664935 14.1957818,2.72664935 14.1957818,3.3969039 C14.1957818,3.95046234 13.7738805,4.04621299 13.6280104,4.44193247" id="Path" stroke="#A5B2BA" stroke-linecap="round" stroke-linejoin="round"></path>
                    <path d="M18.0302961,21.2050286 C18.100613,20.7135584 18.100613,20.1188571 17.8088727,19.6505766 C18.5673974,19.8854649 18.9818182,20.5272935 19.6902234,20.9245091 C19.9535377,20.3365403 20.4292987,19.7074286 20.8377351,19.2062338 C20.9491948,19.7650286 21.2663688,20.2692156 21.3075117,20.8467117 C21.8199273,20.2669714 22.608374,20.145039 23.1896104,19.7956987 C22.9158234,20.1816935 23.0093299,20.6903688 23.0564571,21.2514078" id="Path" stroke="#A5B2BA" stroke-linecap="round" stroke-linejoin="round"></path>
                    <path d="M0.221423377,21.2050286 C0.290992208,20.7135584 0.29174026,20.1188571 0,19.6505766 C0.758524675,19.8854649 1.17294545,20.5272935 1.8806026,20.9245091 C2.14466494,20.3365403 2.62042597,19.7074286 3.02886234,19.2062338 C3.14032208,19.7650286 3.4574961,20.2692156 3.49863896,20.8467117 C4.01105455,20.2669714 4.7995013,20.145039 5.38073766,19.7956987 C5.10695065,20.1816935 5.20045714,20.6903688 5.24683636,21.2514078" id="Path" stroke="#A5B2BA" stroke-linecap="round" stroke-linejoin="round"></path>
                    <path d="M21.0075429,23.1686649 L22.550774,23.1686649 L21.0075429,23.1686649 Z" id="Path" stroke="#A5B2BA" stroke-linecap="round" stroke-linejoin="round"></path>
                    <path d="M10.8235636,21.7346494 L12.3660468,21.7346494 L10.8235636,21.7346494 Z" id="Path" stroke="#A5B2BA" stroke-linecap="round" stroke-linejoin="round"></path>
                    <path d="M1.19987532,23.5890701 L2.60247273,23.5890701 L1.19987532,23.5890701 Z" id="Path" stroke="#A5B2BA" stroke-linecap="round" stroke-linejoin="round"></path>
                </g>
            </g>
        </g>
    </g>
</svg>