<?xml version="1.0" encoding="UTF-8"?>
<svg width="24px" height="23px" viewBox="0 0 24 23" version="1.1" xmlns="http://www.w3.org/2000/svg" xmlns:xlink="http://www.w3.org/1999/xlink">
    <!-- Generator: Sketch 49.3 (51167) - http://www.bohemiancoding.com/sketch -->
    <title>D/Icon/Features/Outside Spa</title>
    <desc>Created with Sketch.</desc>
    <defs></defs>
    <g id="Symbols" stroke="none" stroke-width="1" fill="none" fill-rule="evenodd" stroke-linecap="round" stroke-linejoin="round">
        <g id="Icon/Unique/Outside-Spa/Grey" transform="translate(-4.000000, -5.000000)" stroke="#A5B2BA">
            <g id="D/Icon/Features/Outside-Spa" transform="translate(4.000000, 5.000000)">
                <g id="Outside-Spa">
                    <path d="M23.3142857,22.2374857 L0.685714286,22.2374857 L23.3142857,22.2374857 Z" id="Path"></path>
                    <path d="M8.79818635,9.61142857 C7.92705376,8.77122535 7.38514286,7.59143683 7.38514286,6.28502857 C7.38514286,3.73417143 9.4512,1.66605714 12,1.66605714 C14.5488,1.66605714 16.6148571,3.73417143 16.6148571,6.28502857 C16.6148571,7.59143683 16.0729462,8.77122535 15.2018137,9.61142857 L22.6285714,9.61142857 C23.0057143,9.61142857 23.3142857,9.92 23.3142857,10.2971429 L23.3142857,11.5698286 C23.3142857,11.9469714 23.0057143,12.2555429 22.6285714,12.2555429 L1.37142857,12.2555429 C0.994285714,12.2555429 0.685714286,11.9469714 0.685714286,11.5698286 L0.685714286,10.2971429 C0.685714286,9.92 0.994285714,9.61142857 1.37142857,9.61142857 L8.79818635,9.61142857 Z" id="Path"></path>
                    <polygon id="Path" points="1.54285714 22.2374857 22.4571429 22.2374857 22.4571429 12.2548571 1.54285714 12.2548571"></polygon>
                    <path d="M16.6148571,6.28502857 C16.6148571,8.83588571 14.5488,10.904 12,10.904 C9.4512,10.904 7.38514286,8.83588571 7.38514286,6.28502857 C7.38514286,3.73417143 9.4512,1.66605714 12,1.66605714 C14.5488,1.66605714 16.6148571,3.73417143 16.6148571,6.28502857 L16.6148571,6.28502857 Z" id="Stroke-4"></path>
                    <path d="M12.3668571,3.77188571 C12.1378286,4.32045714 11.544,4.47474286 11.544,5.27222857 C11.544,6.26308571 12.456,6.26308571 12.456,7.25325714 C12.456,8.072 11.8326857,8.21394286 11.6166857,8.79817143" id="Path"></path>
                    <path d="M10.1259429,4.72708571 C9.984,5.0672 9.61577143,5.1632 9.61577143,5.6576 C9.61577143,6.27131429 10.1814857,6.27131429 10.1814857,6.88502857 C10.1814857,7.39314286 9.79474286,7.48091429 9.66102857,7.84297143" id="Path"></path>
                    <path d="M14.3286857,4.72708571 C14.1867429,5.0672 13.8185143,5.1632 13.8185143,5.6576 C13.8185143,6.27131429 14.3842286,6.27131429 14.3842286,6.88502857 C14.3842286,7.39314286 13.9974857,7.48091429 13.8637714,7.84297143" id="Path"></path>
                    <path d="M4.68137143,13.9753143 L4.68137143,20.4038857 L4.68137143,13.9753143 Z" id="Path"></path>
                    <path d="M7.60868571,13.9753143 L7.60868571,20.4038857 L7.60868571,13.9753143 Z" id="Path"></path>
                    <path d="M10.5366857,13.9753143 L10.5366857,20.4038857 L10.5366857,13.9753143 Z" id="Path"></path>
                    <path d="M13.464,13.9753143 L13.464,20.4038857 L13.464,13.9753143 Z" id="Path"></path>
                    <path d="M16.3906286,13.9753143 L16.3906286,20.4038857 L16.3906286,13.9753143 Z" id="Path"></path>
                    <path d="M19.3186286,13.9753143 L19.3186286,20.4038857 L19.3186286,13.9753143 Z" id="Path"></path>
                    <path d="M1.5744,2.43748571 C1.63817143,1.98765714 1.63885714,1.44182857 1.37142857,1.01257143 C2.06674286,1.22857143 2.44662857,1.81691429 3.09531429,2.18034286 C3.33737143,1.64137143 3.77348571,1.06537143 4.14788571,0.605257143 C4.25005714,1.11817143 4.5408,1.58034286 4.57851429,2.10902857 C5.04822857,1.57828571 5.77097143,1.46582857 6.30377143,1.14628571 C6.0528,1.50011429 6.13851429,1.9664 6.18102857,2.48068571" id="Path"></path>
                    <path d="M3.84685714,4.66605714 L5.04685714,4.66605714 L3.84685714,4.66605714 Z" id="Path"></path>
                    <path d="M1.78971429,6.7664 L4.53257143,6.7664 L1.78971429,6.7664 Z" id="Path"></path>
                    <path d="M22.4256,2.43748571 C22.3618286,1.98765714 22.3611429,1.44182857 22.6285714,1.01257143 C21.9332571,1.22857143 21.5533714,1.81691429 20.9046857,2.18034286 C20.6626286,1.64137143 20.2265143,1.06537143 19.8521143,0.605257143 C19.7499429,1.11817143 19.4592,1.58034286 19.4214857,2.10902857 C18.9517714,1.57828571 18.2290286,1.46582857 17.6962286,1.14628571 C17.9472,1.50011429 17.8614857,1.9664 17.8189714,2.48068571" id="Path"></path>
                    <path d="M20.1531429,4.66605714 L18.9531429,4.66605714 L20.1531429,4.66605714 Z" id="Path"></path>
                    <path d="M22.2102857,6.7664 L19.4674286,6.7664 L22.2102857,6.7664 Z" id="Path"></path>
                </g>
            </g>
        </g>
    </g>
</svg>