<?xml version="1.0" encoding="UTF-8"?>
<svg width="24px" height="24px" viewBox="0 0 24 24" version="1.1" xmlns="http://www.w3.org/2000/svg" xmlns:xlink="http://www.w3.org/1999/xlink">
    <!-- Generator: Sketch 49.3 (51167) - http://www.bohemiancoding.com/sketch -->
    <title>D/Icon/Features/Pay TV</title>
    <desc>Created with Sketch.</desc>
    <defs></defs>
    <g id="Symbols" stroke="none" stroke-width="1" fill="none" fill-rule="evenodd" stroke-linecap="round" stroke-linejoin="round">
        <g id="Icon/Unique/Pay-TV/Grey" transform="translate(-4.000000, -4.000000)" stroke="#A5B2BA">
            <g id="D/Icon/Features/Pay-TV" transform="translate(4.000000, 4.000000)">
                <g id="Pay-TV">
                    <path d="M9.91405714,23.2374857 L14.0859429,23.2374857 L9.91405714,23.2374857 Z" id="Stroke-1"></path>
                    <path d="M7.47758762,6.44297143 C7.41696671,6.14453935 7.38514286,5.83564471 7.38514286,5.51931429 C7.38514286,2.97051429 9.4512,0.903771429 12,0.903771429 C14.5488,0.903771429 16.6148571,2.97051429 16.6148571,5.51931429 C16.6148571,5.83564471 16.5830333,6.14453935 16.5224124,6.44297143 L23.3142857,6.44297143 L23.3142857,19.6566857 L0.685714286,19.6566857 L0.685714286,6.44297143 L7.47758762,6.44297143 Z M8.44405135,8.46102857 L2.83885714,8.46102857 L2.83885714,17.6379429 L21.1611429,17.6379429 L21.1611429,8.46102857 L15.5559487,8.46102857 C14.7094893,9.48309239 13.4308083,10.1341714 12,10.1341714 C10.5691917,10.1341714 9.29051073,9.48309239 8.44405135,8.46102857 Z" id="Path"></path>
                    <path d="M12,19.656 L12,23.0962286 L12,19.656 Z" id="Path"></path>
                    <path d="M16.6148571,5.51931429 C16.6148571,8.06811429 14.5488,10.1341714 12,10.1341714 C9.4512,10.1341714 7.38514286,8.06811429 7.38514286,5.51931429 C7.38514286,2.97051429 9.4512,0.903771429 12,0.903771429 C14.5488,0.903771429 16.6148571,2.97051429 16.6148571,5.51931429 L16.6148571,5.51931429 Z M12,3.14057143 L12,7.89737143 L12,3.14057143 Z M14.3787429,5.51931429 L9.62125714,5.51931429 L14.3787429,5.51931429 Z M5.4,14.7901714 L8.89302857,11.2971429 L5.4,14.7901714 Z M7.67108571,14.7901714 L8.85874286,13.6025143 L7.67108571,14.7901714 Z M12.8146286,16.1184 L18.6,10.3323429 L12.8146286,16.1184 Z M17.0571429,14.1963429 L18.1261714,13.1266286 L17.0571429,14.1963429 Z M10.9289143,14.4473143 L12.6692571,12.7062857 L10.9289143,14.4473143 Z" id="Stroke-4"></path>
                </g>
            </g>
        </g>
    </g>
</svg>