<?xml version="1.0" encoding="UTF-8"?>
<svg width="24px" height="25px" viewBox="0 0 24 25" version="1.1" xmlns="http://www.w3.org/2000/svg" xmlns:xlink="http://www.w3.org/1999/xlink">
    <!-- Generator: Sketch 49.3 (51167) - http://www.bohemiancoding.com/sketch -->
    <title>D/Icon/Features/Pet Friendly</title>
    <desc>Created with Sketch.</desc>
    <defs></defs>
    <g id="Symbols" stroke="none" stroke-width="1" fill="none" fill-rule="evenodd" stroke-linecap="round" stroke-linejoin="round">
        <g id="Icon/Unique/Pet-Friendly/Grey" transform="translate(-4.000000, -4.000000)" stroke="#A5B2BA">
            <g id="D/Icon/Features/Pet-Friendly" transform="translate(5.000000, 5.000000)">
                <g id="Pet-Friendly">
                    <path d="M6.64721474,16.5499897 C8.72904331,16.1742182 12.0876719,18.1936468 11.6399005,20.5264468 C11.2730433,22.4382182 8.39304331,21.1120468 7.4995576,21.2731897 C6.60607188,21.4343325 4.3795576,23.682104 3.36744331,22.0192468 C2.1331576,19.9902182 4.60584331,16.9182182 6.64721474,16.5499897 L6.64721474,16.5499897 Z"></path>
                    <path d="M2.33270046,16.3134182 C2.90047188,17.0601611 2.93887188,17.9858754 2.41978617,18.3801611 C1.90070046,18.7744468 1.0195576,18.4891897 0.452471884,17.7424468 C-0.115299544,16.995704 -0.153699544,16.0699897 0.36538617,15.675704 C0.884471884,15.2814182 1.76561474,15.5666754 2.33270046,16.3134182 L2.33270046,16.3134182 Z" id="Path"></path>
                    <path d="M12.2371576,13.5335325 C11.6131576,13.3456468 10.8869862,13.9209611 10.6168147,14.8192468 C10.3459576,15.7168468 10.6325862,16.597304 11.2572719,16.7858754 C11.8819576,16.9737611 12.6074433,16.3984468 12.8776147,15.5001611 C13.1484719,14.6025611 12.8618433,13.722104 12.2371576,13.5335325 L12.2371576,13.5335325 Z" id="Path"></path>
                    <path d="M5.35190046,13.7598182 C5.0707576,12.8649611 4.33772903,12.2985611 3.71578617,12.4946754 C3.09384331,12.690104 2.81818617,13.5739897 3.09932903,14.4688468 C3.3811576,15.3630182 4.11350046,15.9294182 4.73544331,15.7339897 C5.35807188,15.5378754 5.63372903,14.6539897 5.35190046,13.7598182 L5.35190046,13.7598182 Z" id="Path"></path>
                    <path d="M7.98572903,11.7239325 C7.33498617,11.7575325 6.8467576,12.5447325 6.89544331,13.4814182 C6.94412903,14.4174182 7.51121474,15.1497611 8.16264331,15.1154754 C8.81407188,15.0818754 9.30230046,14.2946754 9.25361474,13.3586754 C9.20492903,12.4219897 8.6371576,11.6903325 7.98572903,11.7239325 L7.98572903,11.7239325 Z" id="Path"></path>
                    <path d="M15.7452719,4.92164682 C17.7907576,5.45993253 19.9823005,8.70884682 18.5916719,10.6343325 C17.4520147,12.2121611 15.4010433,9.79433253 14.523329,9.56324682 C13.644929,9.3321611 10.6778433,10.4286182 10.462529,8.49421825 C10.1999005,6.13398968 13.7381862,4.39364682 15.7452719,4.92164682 L15.7452719,4.92164682 Z" id="Path"></path>
                    <path d="M11.9340719,2.8857611 C12.132929,3.80187539 11.777729,4.6569611 11.1400147,4.79547539 C10.5029862,4.93398968 9.82481474,4.30313253 9.6259576,3.38633253 C9.42710046,2.47021825 9.78230046,1.61513253 10.419329,1.47661825 C11.0570433,1.33810396 11.734529,1.9689611 11.9340719,2.8857611 L11.9340719,2.8857611 Z" id="Path"></path>
                    <path d="M22.0853862,4.54793253 C21.5992147,4.11318968 20.6981862,4.32850396 20.0741862,5.02861825 C19.4495005,5.72804682 19.337729,6.64758968 19.8239005,7.08164682 C20.3107576,7.51570396 21.2117862,7.30038968 21.8357862,6.6009611 C22.4604719,5.90084682 22.5722433,4.98198968 22.0853862,4.54793253 L22.0853862,4.54793253 Z" id="Path"></path>
                    <path d="M15.7493862,1.84484682 C15.8714433,0.915018247 15.4463005,0.0928468184 14.8003576,0.00713253267 C14.153729,-0.0778960388 13.529729,0.607132533 13.4076719,1.5369611 C13.284929,2.46678968 13.7100719,3.28964682 14.3567005,3.37467539 C15.003329,3.45970396 15.6266433,2.77467539 15.7493862,1.84484682 L15.7493862,1.84484682 Z" id="Path"></path>
                    <path d="M18.9962433,1.11181825 C18.3914433,0.867703961 17.6165862,1.37444682 17.2655005,2.24461825 C16.913729,3.11410396 17.1194433,4.01718968 17.7242433,4.26130396 C18.3290433,4.50541825 19.1039005,3.99867539 19.4549862,3.12918968 C19.8060719,2.25901825 19.6010433,1.35661825 18.9962433,1.11181825 L18.9962433,1.11181825 Z" id="Path"></path>
                </g>
            </g>
        </g>
    </g>
</svg>