<?xml version="1.0" encoding="UTF-8"?>
<svg width="26px" height="25px" viewBox="0 0 26 25" version="1.1" xmlns="http://www.w3.org/2000/svg" xmlns:xlink="http://www.w3.org/1999/xlink">
    <!-- Generator: Sketch 49.3 (51167) - http://www.bohemiancoding.com/sketch -->
    <title>D/Icon/Features/Pool Above Ground</title>
    <desc>Created with Sketch.</desc>
    <defs></defs>
    <g id="Symbols" stroke="none" stroke-width="1" fill="none" fill-rule="evenodd" stroke-linecap="round" stroke-linejoin="round">
        <g id="Icon/Unique/Pool-Above-Ground/Grey" transform="translate(-3.000000, -3.000000)" stroke="#A5B2BA">
            <g id="D/Icon/Features/Pool-Above-Ground" transform="translate(4.000000, 4.000000)">
                <g id="Pool-Above-Ground">
                    <polygon points="23.6139122 16.4581812 0 16.4581812 3.57786548 0 20.0360467 0"></polygon>
                    <path d="M18.1469337,19.1415803 L18.1469337,23.3012067 L18.1469337,19.1415803 Z" id="Path"></path>
                    <path d="M5.98219108,19.1415803 L5.98219108,23.3012067 L5.98219108,19.1415803 Z" id="Path"></path>
                    <path d="M12.0645624,19.1415803 L12.0645624,23.3012067 L12.0645624,19.1415803 Z" id="Path"></path>
                    <polygon id="Path" points="0 19.1415803 23.6139122 19.1415803 23.6139122 23.3012067 0 23.3012067"></polygon>
                    <polygon id="Path" points="0 16.4581812 23.6139122 16.4581812 23.6139122 19.1415803 0 19.1415803"></polygon>
                    <path d="M11.8069561,5.35821134 C9.97437339,5.35821134 9.97437339,4.15962641 8.14250626,4.15962641 C7.22728827,4.15962641 6.76860591,4.45802039 6.31135471,4.75712994" id="Path"></path>
                    <path d="M11.8069561,5.35821134 C13.6395388,5.35821134 13.6395388,4.15962641 15.4714059,4.15962641 C16.3866239,4.15962641 16.8453063,4.45802039 17.3025575,4.75712994" id="Path"></path>
                    <path d="M11.8069561,8.57829027 C9.97437339,8.57829027 9.97437339,7.37970534 8.14250626,7.37970534 C6.53819138,7.37970534 6.33711534,8.29778562 5.08414685,8.52676901" id="Path"></path>
                    <path d="M11.8069561,8.57829027 C13.6395388,8.57829027 13.6395388,7.37970534 15.4714059,7.37970534 C17.0757208,7.37970534 17.2767968,8.29778562 18.5297653,8.52676901" id="Path"></path>
                    <path d="M11.8069561,11.7983692 C9.97437339,11.7983692 9.97437339,10.5990687 8.14250626,10.5990687 C6.30849241,10.5990687 6.30849241,11.7983692 4.47519414,11.7983692" id="Path"></path>
                    <path d="M11.8069561,11.7983692 C13.6395388,11.7983692 13.6395388,10.5990687 15.4714059,10.5990687 C17.3054198,10.5990687 17.3054198,11.7983692 19.138718,11.7983692" id="Path"></path>
                    <polygon id="Path" points="21.228907 14.0975056 2.38500513 14.0975056 5.38468755 1.98786206 18.2292246 1.98786206"></polygon>
                </g>
            </g>
        </g>
    </g>
</svg>