<?xml version="1.0" encoding="UTF-8"?>
<svg width="26px" height="25px" viewBox="0 0 26 25" version="1.1" xmlns="http://www.w3.org/2000/svg" xmlns:xlink="http://www.w3.org/1999/xlink">
    <!-- Generator: Sketch 49.3 (51167) - http://www.bohemiancoding.com/sketch -->
    <title>D/Icon/Features/Pool In Ground</title>
    <desc>Created with Sketch.</desc>
    <defs></defs>
    <g id="Symbols" stroke="none" stroke-width="1" fill="none" fill-rule="evenodd" stroke-linecap="round" stroke-linejoin="round">
        <g id="Icon/Unique/Pool-In-Ground/Grey" transform="translate(-3.000000, -3.000000)" stroke="#A5B2BA">
            <g id="D/Icon/Features/Pool-In-Ground" transform="translate(4.000000, 4.000000)">
                <g id="Pool-In-Ground">
                    <polygon points="23.6124224 23.2546584 0 23.2546584 5.00869565 3.93540373 18.6037267 3.93540373"></polygon>
                    <polygon id="Path" points="21.2275677 20.8941317 2.38485466 20.8941317 6.81540373 5.92314037 16.7970186 5.92314037"></polygon>
                    <path d="M11.8062112,18.5429068 C13.6386783,18.5429068 13.6386783,17.3443975 15.4704298,17.3443975 C17.304328,17.3443975 17.304328,18.5429068 19.1375106,18.5429068" id="Path"></path>
                    <path d="M11.8062112,15.3230311 C13.6386783,15.3230311 13.6386783,14.1245217 15.4704298,14.1245217 C16.6489043,14.1245217 17.0696348,14.6189516 17.7064547,14.9731379" id="Path"></path>
                    <path d="M11.8062112,12.1031553 C13.6386783,12.1031553 13.6386783,10.904646 15.4704298,10.904646 C16.1043876,10.904646 16.5193938,11.0477516 16.8671404,11.2352199" id="Path"></path>
                    <path d="M11.8062112,8.8832795 C13.6386783,8.8832795 13.6386783,7.68477019 15.4704298,7.68477019" id="Path"></path>
                    <path d="M11.8062112,18.5429068 C9.9737441,18.5429068 9.9737441,17.3443975 8.14199255,17.3443975 C6.30809441,17.3443975 6.30809441,18.5429068 4.4749118,18.5429068" id="Path"></path>
                    <path d="M11.8062112,15.3230311 C9.9737441,15.3230311 9.9737441,14.1245217 8.14199255,14.1245217 C6.96351801,14.1245217 6.54278758,14.6189516 5.9059677,14.9731379" id="Path"></path>
                    <path d="M11.8062112,12.1031553 C9.9737441,12.1031553 9.9737441,10.904646 8.14199255,10.904646 C7.50731925,10.904646 7.09302857,11.0477516 6.74528199,11.2352199" id="Path"></path>
                    <path d="M11.8062112,8.8832795 C9.9737441,8.8832795 9.9737441,7.68477019 8.14199255,7.68477019" id="Path"></path>
                    <path d="M0.615354037,9.7791205 L1.74803478,9.7791205 L0.615354037,9.7791205 Z" id="Path"></path>
                    <path d="M0.37708323,7.02147578 L1.74803478,7.02147578 L0.37708323,7.02147578 Z" id="Path"></path>
                    <path d="M1.98702112,5.00010932 L3.17909068,5.00010932 L1.98702112,5.00010932 Z" id="Path"></path>
                    <path d="M0.749157764,2.32546584 L2.7469118,2.32546584 L0.749157764,2.32546584 Z" id="Path"></path>
                    <path d="M3.44455155,0.298375155 L5.89523478,0.298375155 L3.44455155,0.298375155 Z" id="Path"></path>
                    <path d="M5.89523478,1.96770186 L8.0690087,1.96770186 L5.89523478,1.96770186 Z" id="Path"></path>
                    <path d="M10.3343702,0 L12.7199404,0 L10.3343702,0 Z" id="Path"></path>
                    <path d="M13.9120099,2.32546584 L15.999205,2.32546584 L13.9120099,2.32546584 Z" id="Path"></path>
                    <path d="M16.8936149,0.298375155 L19.3979627,0.298375155 L16.8936149,0.298375155 Z" id="Path"></path>
                    <path d="M20.4118658,3.51825093 L22.9162137,3.51825093 L20.4118658,3.51825093 Z" id="Path"></path>
                    <path d="M21.3012671,5.92314037 L22.861118,5.92314037 L21.3012671,5.92314037 Z" id="Path"></path>
                    <path d="M21.5445466,8.94409938 L23.2138733,8.94409938 L21.5445466,8.94409938 Z" id="Path"></path>
                    <path d="M21.5445466,1.01390311 L22.6178385,1.01390311 L21.5445466,1.01390311 Z" id="Path"></path>
                </g>
            </g>
        </g>
    </g>
</svg>