<?xml version="1.0" encoding="UTF-8"?>
<svg width="26px" height="26px" viewBox="0 0 26 26" version="1.1" xmlns="http://www.w3.org/2000/svg" xmlns:xlink="http://www.w3.org/1999/xlink">
    <!-- Generator: Sketch 49.3 (51167) - http://www.bohemiancoding.com/sketch -->
    <title>D/Icon/Features/Pool</title>
    <desc>Created with Sketch.</desc>
    <defs></defs>
    <g id="Symbols" stroke="none" stroke-width="1" fill="none" fill-rule="evenodd" stroke-linecap="round" stroke-linejoin="round">
        <g id="Icon/Unique/Pool/Grey" transform="translate(-3.000000, -3.000000)" stroke="#A5B2BA">
            <g id="D/Icon/Features/Pool" transform="translate(4.000000, 4.000000)">
                <g id="Pool">
                    <polygon points="24 24 0 24 3.63636364 0 20.3636364 0"></polygon>
                    <polygon id="Path" points="21.576 21.6007273 2.424 21.6007273 5.47272727 2.02036364 18.5272727 2.02036364"></polygon>
                    <path d="M12,18.9650909 C13.8625455,18.9650909 13.8625455,17.7469091 15.7243636,17.7469091 C17.5883636,17.7469091 17.5883636,18.9650909 19.4516364,18.9650909" id="Path"></path>
                    <path d="M12,15.6930909 C13.8625455,15.6930909 13.8625455,14.4741818 15.7243636,14.4741818 C17.3549091,14.4741818 17.5592727,15.4072727 18.8327273,15.64" id="Path"></path>
                    <path d="M12,12.4196364 C13.8625455,12.4196364 13.8625455,11.2014545 15.7243636,11.2014545 C17.1185455,11.2014545 17.4698182,11.8829091 18.3381818,12.2269091" id="Path"></path>
                    <path d="M12,9.14690909 C13.8625455,9.14690909 13.8625455,7.92872727 15.7243636,7.92872727 C16.9949091,7.92872727 17.3992727,8.49454545 18.1185455,8.85527273" id="Path"></path>
                    <path d="M12,5.87418182 C13.8625455,5.87418182 13.8625455,4.656 15.7243636,4.656 C16.6545455,4.656 17.1207273,4.95927273 17.5854545,5.26327273" id="Path"></path>
                    <path d="M12,18.9650909 C10.1374545,18.9650909 10.1374545,17.7469091 8.27563636,17.7469091 C6.41163636,17.7469091 6.41163636,18.9650909 4.54836364,18.9650909" id="Path"></path>
                    <path d="M12,15.6930909 C10.1374545,15.6930909 10.1374545,14.4741818 8.27563636,14.4741818 C6.64509091,14.4741818 6.44072727,15.4072727 5.16727273,15.64" id="Path"></path>
                    <path d="M12,12.4196364 C10.1374545,12.4196364 10.1374545,11.2014545 8.27563636,11.2014545 C6.88145455,11.2014545 6.53018182,11.8829091 5.66181818,12.2269091" id="Path"></path>
                    <path d="M12,9.14690909 C10.1374545,9.14690909 10.1374545,7.92872727 8.27563636,7.92872727 C7.00509091,7.92872727 6.60072727,8.49454545 5.88145455,8.85527273" id="Path"></path>
                    <path d="M12,5.87418182 C10.1374545,5.87418182 10.1374545,4.656 8.27563636,4.656 C7.34545455,4.656 6.87927273,4.95927273 6.41454545,5.26327273" id="Path"></path>
                </g>
            </g>
        </g>
    </g>
</svg>