<?xml version="1.0" encoding="UTF-8"?>
<svg width="24px" height="24px" viewBox="0 0 24 24" version="1.1" xmlns="http://www.w3.org/2000/svg" xmlns:xlink="http://www.w3.org/1999/xlink">
    <!-- Generator: Sketch 49.3 (51167) - http://www.bohemiancoding.com/sketch -->
    <title>D/Icon/Features/Remote Garage</title>
    <desc>Created with Sketch.</desc>
    <defs></defs>
    <g id="Symbols" stroke="none" stroke-width="1" fill="none" fill-rule="evenodd" stroke-linecap="round" stroke-linejoin="round">
        <g id="Icon/Unique/Remote-Garage/Grey" transform="translate(-4.000000, -5.000000)" stroke="#A5B2BA">
            <g id="D/Icon/Features/Remote-Garage" transform="translate(4.000000, 5.000000)">
                <g id="Remote-Garage">
                    <path d="M1.43794286,21.2571429 L1.43794286,6.69188571 L1.43794286,21.2571429 Z" id="Stroke-1"></path>
                    <path d="M22.5620571,21.2571429 L22.5620571,6.69188571 L22.5620571,21.2571429 Z" id="Path"></path>
                    <path d="M0.685714286,3.16182857 L12,0.685714286 L0.685714286,3.16182857 Z" id="Path"></path>
                    <path d="M23.3142857,3.16182857 L12,0.685714286 L23.3142857,3.16182857 Z" id="Path"></path>
                    <polyline id="Path" points="7.84680177 6.48411422 0.656372081 6.48411422 0.656372081 3.16182857 23.3142857 3.16182857 23.3142857 6.48411429 16.1499019 6.48411422"></polyline>
                    <path d="M16.1738277,21.2571429 L23.3142857,21.2571429 L16.1738277,21.2571429 Z" id="Path"></path>
                    <path d="M0.685714286,21.2571429 L7.89123539,21.2571429 L0.685714286,21.2571429 Z" id="Path"></path>
                    <path d="M7.84277744,21.257143 C6.26183996,21.257143 3.22422857,21.2571429 3.22422857,21.2571429 L3.22422857,8.81000042 L7.84277747,8.81000042" id="Path"></path>
                    <path d="M16.2304685,8.80731429 L20.7750857,8.80731429 L20.7750857,21.2571429 L16.1069336,21.2571429" id="Path"></path>
                    <path d="M16.0929565,10.7622857 L18.8358857,10.7622857 L18.8358857,13.5888 L16.0808105,13.5888" id="Path"></path>
                    <path d="M5.1921463,10.7622857 L7.93507547,10.7622857 L7.93507547,13.5888 L5.18000031,13.5888" id="Path" transform="translate(6.557538, 12.175543) scale(-1, 1) translate(-6.557538, -12.175543) "></path>
                    <polygon id="Stroke-4" points="7.94811429 4.8 16.0518857 4.8 16.0518857 22.8569143 7.94811429 22.8569143"></polygon>
                    <polygon id="Path" points="9.55748571 6.38605714 14.4432 6.38605714 14.4432 9.91474286 9.55748571 9.91474286"></polygon>
                    <path d="M13.3570286,14.1620571 C13.3570286,14.9115429 12.7494857,15.5190857 12,15.5190857 C11.2505143,15.5190857 10.6429714,14.9115429 10.6429714,14.1620571 C10.6429714,13.4125714 11.2505143,12.8050286 12,12.8050286 C12.7494857,12.8050286 13.3570286,13.4125714 13.3570286,14.1620571 L13.3570286,14.1620571 Z" id="Path"></path>
                    <path d="M13.3570286,18.8022857 C13.3570286,19.5517714 12.7494857,20.1593143 12,20.1593143 C11.2505143,20.1593143 10.6429714,19.5517714 10.6429714,18.8022857 C10.6429714,18.0528 11.2505143,17.4452571 12,17.4452571 C12.7494857,17.4452571 13.3570286,18.0528 13.3570286,18.8022857 L13.3570286,18.8022857 Z" id="Path"></path>
                    <path d="M16.2329143,15.7289143 L18.8358857,15.7289143 L16.2329143,15.7289143 Z" id="Path"></path>
                    <path d="M16.2329143,17.4425143 L18.8358857,17.4425143 L16.2329143,17.4425143 Z" id="Path"></path>
                    <path d="M16.2329143,19.1574857 L18.8358857,19.1574857 L16.2329143,19.1574857 Z" id="Path"></path>
                    <path d="M5.16411429,15.7309714 L7.76708571,15.7309714 L5.16411429,15.7309714 Z" id="Path"></path>
                    <path d="M5.16411429,17.4452571 L7.76708571,17.4452571 L5.16411429,17.4452571 Z" id="Path"></path>
                    <path d="M5.16411429,19.1595429 L7.76708571,19.1595429 L5.16411429,19.1595429 Z" id="Path"></path>
                </g>
            </g>
        </g>
    </g>
</svg>