<?xml version="1.0" encoding="UTF-8"?>
<svg width="24px" height="24px" viewBox="0 0 24 24" version="1.1" xmlns="http://www.w3.org/2000/svg" xmlns:xlink="http://www.w3.org/1999/xlink">
    <!-- Generator: Sketch 49.3 (51167) - http://www.bohemiancoding.com/sketch -->
    <title>D/Icon/Features/Reverse Cycle Aircon</title>
    <desc>Created with Sketch.</desc>
    <defs></defs>
    <g id="Symbols" stroke="none" stroke-width="1" fill="none" fill-rule="evenodd" stroke-linecap="round" stroke-linejoin="round">
        <g id="Icon/Unique/Reverse-Cycle-Aircon/Grey" transform="translate(-4.000000, -4.000000)" stroke="#A5B2BA">
            <g id="D/Icon/Features/Reverse-Cycle-Aircon" transform="translate(4.000000, 4.000000)">
                <g id="Reverse-Cycle-Aircon">
                    <path d="M3.96548571,5.1072 C5.49462857,2.46377143 8.35268571,0.685714286 11.6262857,0.685714286 C14.8985143,0.685714286 17.7552,2.46308571 19.2850286,5.10445714" id="Path"></path>
                    <polyline id="Path" points="20.0345143 3.48137143 19.5984 5.56114286 17.5186286 5.12502857"></polyline>
                    <path d="M20.0345143,18.8928 C18.5053714,21.5362286 15.6473143,23.3142857 12.3737143,23.3142857 C9.10148571,23.3142857 6.2448,21.5369143 4.71497143,18.8955429" id="Path"></path>
                    <polyline id="Path" points="3.96548571 20.5193143 4.4016 18.4388571 6.48137143 18.8749714"></polyline>
                    <path d="M23.3142857,12 C23.3142857,14.5282286 21.2646857,16.5785143 18.7357714,16.5785143 C16.2075429,16.5785143 14.1579429,14.5282286 14.1579429,12 C14.1579429,9.47177143 16.2075429,7.42148571 18.7357714,7.42148571 C21.2646857,7.42148571 23.3142857,9.47177143 23.3142857,12 L23.3142857,12 Z" id="Path"></path>
                    <path d="M19.0998857,9.5088 C18.8722286,10.0525714 18.2838857,10.2054857 18.2838857,10.9961143 C18.2838857,11.9780571 19.1883429,11.9780571 19.1883429,12.96 C19.1883429,13.7712 18.5698286,13.9117714 18.3558857,14.4912" id="Path"></path>
                    <path d="M16.8768,10.4557714 C16.7362286,10.7931429 16.3707429,10.8877714 16.3707429,11.3780571 C16.3707429,11.9862857 16.9316571,11.9862857 16.9316571,12.5952 C16.9316571,13.0978286 16.5483429,13.1856 16.416,13.5442286" id="Path"></path>
                    <path d="M21.0459429,10.4557714 C20.9053714,10.7931429 20.5398857,10.8877714 20.5398857,11.3780571 C20.5398857,11.9862857 21.1008,11.9862857 21.1008,12.5952 C21.1008,13.0978286 20.7174857,13.1856 20.5851429,13.5442286" id="Path"></path>
                    <path d="M9.84205714,12 C9.84205714,14.5282286 7.79245714,16.5785143 5.26422857,16.5785143 C2.73531429,16.5785143 0.685714286,14.5282286 0.685714286,12 C0.685714286,9.47177143 2.73531429,7.42148571 5.26422857,7.42148571 C7.79245714,7.42148571 9.84205714,9.47177143 9.84205714,12 L9.84205714,12 Z" id="Path"></path>
                    <path d="M5.26422857,9.17417143 L5.26422857,14.8258286 L5.26422857,9.17417143 Z" id="Path"></path>
                    <path d="M8.09005714,12 L2.43771429,12 L8.09005714,12 Z" id="Path"></path>
                    <path d="M7.2624,13.9981714 L3.26537143,10.0018286 L7.2624,13.9981714 Z" id="Path"></path>
                    <path d="M7.2624,10.0018286 L3.26537143,13.9981714 L7.2624,10.0018286 Z" id="Path"></path>
                </g>
            </g>
        </g>
    </g>
</svg>