<?xml version="1.0" encoding="UTF-8"?>
<svg width="24px" height="23px" viewBox="0 0 24 23" version="1.1" xmlns="http://www.w3.org/2000/svg" xmlns:xlink="http://www.w3.org/1999/xlink">
    <!-- Generator: Sketch 49.3 (51167) - http://www.bohemiancoding.com/sketch -->
    <title>D/Icon/Features/Rumpus Room</title>
    <desc>Created with Sketch.</desc>
    <defs></defs>
    <g id="Symbols" stroke="none" stroke-width="1" fill="none" fill-rule="evenodd" stroke-linecap="round" stroke-linejoin="round">
        <g id="Icon/Unique/Rumpus-Room/Grey" transform="translate(-4.000000, -5.000000)" stroke="#A5B2BA">
            <g id="D/Icon/Features/Rumpus-Room" transform="translate(4.000000, 5.000000)">
                <g id="Rumpus-Room">
                    <polygon id="Path" points="10.8116571 3.36411429 10.8116571 8.41028571 14.6256 5.976"></polygon>
                    <path d="M17.5193143,5.976 C17.5193143,8.89782857 15.1508571,11.2662857 12.2297143,11.2662857 C9.30788571,11.2662857 6.93942857,8.89782857 6.93942857,5.976 C6.93942857,3.05417143 9.30788571,0.685714286 12.2297143,0.685714286 C15.1508571,0.685714286 17.5193143,3.05417143 17.5193143,5.976" id="Path"></path>
                    <path d="M17.5193143,5.976 C17.5193143,8.89782857 15.1508571,11.2662857 12.2297143,11.2662857 C9.30788571,11.2662857 6.93942857,8.89782857 6.93942857,5.976 C6.93942857,3.05417143 9.30788571,0.685714286 12.2297143,0.685714286 C15.1508571,0.685714286 17.5193143,3.05417143 17.5193143,5.976 L17.5193143,5.976 Z" id="Path"></path>
                    <path d="M4.79794286,22.3028571 L2.77028571,22.3028571 L4.79794286,22.3028571 Z" id="Path"></path>
                    <path d="M21.2297143,22.3028571 L19.2020571,22.3028571 L21.2297143,22.3028571 Z" id="Path"></path>
                    <path d="M4.53394286,19.5181714 C2.62971429,19.5181714 4.0656,14.5446857 1.89257143,14.5446857" id="Path"></path>
                    <path d="M4.53394286,19.5181714 L12,19.5181714" id="Path"></path>
                    <path d="M1.89257143,14.5446857 C1.36251429,14.5446857 0.932571429,14.0379429 0.932571429,13.4139429 C0.932571429,12.7892571 1.36251429,12.2825143 1.89257143,12.2825143 C2.54537143,12.2825143 4.872,12.2825143 5.05714286,15.8605714" id="Path"></path>
                    <path d="M6.71931429,13.7876571 C6.36205714,10.1657143 4.84937143,8.32045714 4.84937143,8.32045714 C4.84937143,8.32045714 4.4401778,7.6009708 7.04602052,7.17321777" id="Path"></path>
                    <path d="M1.52434286,12.3689143 L5.85188571,10.1636571" id="Path"></path>
                    <path d="M5.05714286,15.8605714 L6.71931429,13.7876571 C6.71931429,13.7876571 11.9355429,12.5300571 17.2806857,13.7876571" id="Path"></path>
                    <path d="M5.05714286,15.8605714 L12,15.8605714" id="Path"></path>
                    <polyline id="Path" points="4.76022857 19.5181714 4.76022857 22.3028571 12 22.3028571"></polyline>
                    <path d="M19.4660571,19.5181714 C21.3702857,19.5181714 19.9344,14.5446857 22.1074286,14.5446857" id="Path"></path>
                    <path d="M19.4660571,19.5181714 L12,19.5181714" id="Path"></path>
                    <path d="M22.1074286,14.5446857 C22.6381714,14.5446857 23.0674286,14.0379429 23.0674286,13.4139429 C23.0674286,12.7892571 22.6381714,12.2825143 22.1074286,12.2825143 C21.4546286,12.2825143 19.128,12.2825143 18.9428571,15.8605714" id="Path"></path>
                    <path d="M17.2806857,13.7876571 C17.6379429,10.1657143 19.1506286,8.32045714 19.1506286,8.32045714 C19.1506286,8.32045714 19.4368849,7.67533144 17.3571847,7.24038013" id="Path"></path>
                    <path d="M22.4749714,12.3689143 L18.1474286,10.1636571" id="Path"></path>
                    <polyline id="Path" points="17.2806857 13.7876571 18.9428571 15.8605714 12 15.8605714"></polyline>
                    <polyline id="Path" points="19.2397714 19.5181714 19.2397714 22.3028571 12 22.3028571"></polyline>
                </g>
            </g>
        </g>
    </g>
</svg>