<?xml version="1.0" encoding="UTF-8"?>
<svg width="24px" height="24px" viewBox="0 0 24 24" version="1.1" xmlns="http://www.w3.org/2000/svg" xmlns:xlink="http://www.w3.org/1999/xlink">
    <!-- Generator: Sketch 49.3 (51167) - http://www.bohemiancoding.com/sketch -->
    <title>D/Icon/Features/Secure Parking</title>
    <desc>Created with Sketch.</desc>
    <defs></defs>
    <g id="Symbols" stroke="none" stroke-width="1" fill="none" fill-rule="evenodd" stroke-linecap="round" stroke-linejoin="round">
        <g id="Icon/Unique/Secure-Parking/Grey" transform="translate(-4.000000, -4.000000)" stroke="#A5B2BA">
            <g id="D/Icon/Features/Secure-Parking" transform="translate(4.000000, 4.000000)">
                <g id="Secure-Parking">
                    <path d="M1.43794286,20.6523429 L1.43794286,6.09805714 L1.43794286,20.6523429 Z" id="Stroke-1"></path>
                    <path d="M22.5620571,20.6523429 L22.5620571,6.09805714 L22.5620571,20.6523429 Z" id="Path"></path>
                    <path d="M0.685714286,3.20434286 L12,0.685714286 L0.685714286,3.20434286 Z" id="Path"></path>
                    <path d="M23.3142857,3.20434286 L12,0.685714286 L23.3142857,3.20434286 Z" id="Path"></path>
                    <polygon id="Path" points="0.685714286 3.20434286 23.3142857 3.20434286 23.3142857 5.88685714 0.685714286 5.88685714"></polygon>
                    <path d="M0.685714286,20.6523429 L7.02857143,20.6523429 L0.685714286,20.6523429 Z" id="Path"></path>
                    <path d="M16.9714286,20.6523429 L23.3142857,20.6523429 L16.9714286,20.6523429 Z" id="Path"></path>
                    <polyline id="Path" points="8.37524435 20.6523431 3.22491429 20.6523431 3.22491429 8.25051429 20.7757714 8.25051429 20.7757714 20.6523429 15.6903074 20.6523431"></polyline>
                    <polygon id="Path" points="5.16411429 10.2397714 11.1216 10.2397714 11.1216 13.1156571 5.16411429 13.1156571"></polygon>
                    <polygon id="Path" points="12.8784 10.2397714 18.8358857 10.2397714 18.8358857 13.1156571 12.8784 13.1156571"></polygon>
                    <path d="M15.5348571,22.6285714 C15.5348571,23.0057143 15.2262857,23.3142857 14.8491429,23.3142857 L9.15085714,23.3142857 C8.77371429,23.3142857 8.46514286,23.0057143 8.46514286,22.6285714 L8.46514286,18.6761143 C8.46514286,18.2989714 8.77371429,17.9904 9.15085714,17.9904 L14.8491429,17.9904 C15.2262857,17.9904 15.5348571,18.2989714 15.5348571,18.6761143 L15.5348571,22.6285714 L15.5348571,22.6285714 Z" id="Stroke-4"></path>
                    <path d="M9.912,16.7622857 C9.912,15.5890286 10.8466286,14.6379429 12,14.6379429 C13.1533714,14.6379429 14.088,15.5890286 14.088,16.7622857" id="Path"></path>
                    <path d="M9.912,16.7622857 L9.912,17.9904 L9.912,16.7622857 Z" id="Path"></path>
                    <path d="M14.088,16.7622857 L14.088,17.9904 L14.088,16.7622857 Z" id="Path"></path>
                    <path d="M18.8358857,15.2194286 L15.3716571,15.2194286 L18.8358857,15.2194286 Z" id="Path"></path>
                    <path d="M18.8358857,16.9632 L16.1430857,16.9632 L18.8358857,16.9632 Z" id="Path"></path>
                    <path d="M18.8358857,18.7069714 L16.9714286,18.7069714 L18.8358857,18.7069714 Z" id="Path"></path>
                    <path d="M5.16411429,15.2194286 L8.62834286,15.2194286 L5.16411429,15.2194286 Z" id="Path"></path>
                    <path d="M5.16411429,16.9632 L7.85691429,16.9632 L5.16411429,16.9632 Z" id="Path"></path>
                    <path d="M5.16411429,18.7069714 L7.02857143,18.7069714 L5.16411429,18.7069714 Z" id="Path"></path>
                </g>
            </g>
        </g>
    </g>
</svg>