<?xml version="1.0" encoding="UTF-8"?>
<svg width="26px" height="26px" viewBox="0 0 26 26" version="1.1" xmlns="http://www.w3.org/2000/svg" xmlns:xlink="http://www.w3.org/1999/xlink">
    <!-- Generator: Sketch 49.3 (51167) - http://www.bohemiancoding.com/sketch -->
    <title>D/Icon/Features/Shed</title>
    <desc>Created with Sketch.</desc>
    <defs></defs>
    <g id="Symbols" stroke="none" stroke-width="1" fill="none" fill-rule="evenodd" stroke-linecap="round" stroke-linejoin="round">
        <g id="Icon/Unique/Shed/Grey" transform="translate(-3.000000, -3.000000)" stroke="#A5B2BA">
            <g id="D/Icon/Features/Shed" transform="translate(4.000000, 4.000000)">
                <g id="Shed">
                    <path d="M0.797818182,24 L0.797818182,5.64290909 L0.797818182,24 Z"></path>
                    <path d="M23.2021818,24 L23.2021818,5.64290909 L23.2021818,24 Z" id="Path"></path>
                    <path d="M0,2.62618182 L12,0 L0,2.62618182 Z" id="Path"></path>
                    <path d="M24,2.62618182 L12,0 L24,2.62618182 Z" id="Path"></path>
                    <polygon id="Path" points="0 2.62618182 24 2.62618182 24 5.42254545 0 5.42254545"></polygon>
                    <path d="M0,24 L24,24 L0,24 Z" id="Path"></path>
                    <polygon id="Path" points="3.69236364 7.54545455 20.3069091 7.54545455 20.3069091 24 3.69236364 24"></polygon>
                    <path d="M12,7.54545455 L12,24 L12,7.54545455 Z" id="Path"></path>
                    <path d="M19.0349091,10.1818182 L21.5803636,10.1818182 L19.0349091,10.1818182 Z" id="Path"></path>
                    <path d="M19.0349091,15.7883636 L21.5803636,15.7883636 L19.0349091,15.7883636 Z" id="Path"></path>
                    <path d="M19.0349091,21.3941818 L21.5803636,21.3941818 L19.0349091,21.3941818 Z" id="Path"></path>
                    <path d="M2.46545455,10.1818182 L5.01090909,10.1818182 L2.46545455,10.1818182 Z" id="Path"></path>
                    <path d="M2.46545455,15.7883636 L5.01090909,15.7883636 L2.46545455,15.7883636 Z" id="Path"></path>
                    <path d="M2.46545455,21.3941818 L5.01090909,21.3941818 L2.46545455,21.3941818 Z" id="Path"></path>
                    <path d="M9.95054545,15.0021818 L9.95054545,16.5745455 L9.95054545,15.0021818 Z" id="Path"></path>
                    <path d="M14.0494545,15.0021818 L14.0494545,16.5745455 L14.0494545,15.0021818 Z" id="Path"></path>
                </g>
            </g>
        </g>
    </g>
</svg>