<?xml version="1.0" encoding="UTF-8"?>
<svg width="24px" height="24px" viewBox="0 0 24 24" version="1.1" xmlns="http://www.w3.org/2000/svg" xmlns:xlink="http://www.w3.org/1999/xlink">
    <!-- Generator: Sketch 49.3 (51167) - http://www.bohemiancoding.com/sketch -->
    <title>D/Icon/Features/Solar Panels</title>
    <desc>Created with Sketch.</desc>
    <defs></defs>
    <g id="Symbols" stroke="none" stroke-width="1" fill="none" fill-rule="evenodd" stroke-linecap="round" stroke-linejoin="round">
        <g id="Icon/Unique/Solar-Panels/Grey" transform="translate(-4.000000, -4.000000)" stroke="#A5B2BA">
            <g id="D/Icon/Features/Solar-Panels" transform="translate(4.500000, 4.000000)">
                <g id="Solar-Panels">
                    <polyline points="14.3255615 4.8 22.6285714 4.8 22.6285714 22.6285714 0 22.6285714 0 4.8 8.26208496 4.8"></polyline>
                    <path d="M20.4857143,6.93051429 L20.4857143,20.2326857 L20.4857143,6.93051429 Z" id="Path"></path>
                    <path d="M17.8409143,10.8569143 L17.8409143,20.2326857 L17.8409143,10.8569143 Z" id="Path"></path>
                    <path d="M15.1961143,13.4139429 L15.1961143,20.2326857 L15.1961143,13.4139429 Z" id="Path"></path>
                    <path d="M12.5513143,13.4139429 L12.5513143,20.2326857 L12.5513143,13.4139429 Z" id="Path"></path>
                    <path d="M7.26102857,12.2509714 L7.26102857,20.2326857 L7.26102857,12.2509714 Z" id="Path"></path>
                    <path d="M9.90582857,13.4146286 L9.90582857,20.2326857 L9.90582857,13.4146286 Z" id="Path"></path>
                    <path d="M4.61622857,10.8569143 L4.61622857,20.2326857 L4.61622857,10.8569143 Z" id="Path"></path>
                    <path d="M1.97142857,6.93051429 L1.97142857,20.2326857 L1.97142857,6.93051429 Z" id="Path"></path>
                    <path d="M20.4857143,20.2326857 L1.97142857,20.2326857 L20.4857143,20.2326857 Z" id="Path"></path>
                    <path d="M20.4857143,17.5721143 L1.97142857,17.5721143 L20.4857143,17.5721143 Z" id="Path"></path>
                    <path d="M20.4857143,14.9122286 L1.97142857,14.9122286 L20.4857143,14.9122286 Z" id="Path"></path>
                    <path d="M20.4857143,9.59108571 L18.8756571,9.59108571 L20.4857143,9.59108571 Z" id="Path"></path>
                    <path d="M3.58148571,9.59108571 L1.97142857,9.59108571 L3.58148571,9.59108571 Z" id="Path"></path>
                    <path d="M20.4857143,12.2509714 L16.4681143,12.2509714 L20.4857143,12.2509714 Z" id="Path"></path>
                    <path d="M5.98902857,12.2509714 L1.97142857,12.2509714 L5.98902857,12.2509714 Z" id="Path"></path>
                    <path d="M14.3986286,6.06994286 C14.3986286,7.77257143 13.0176,9.1536 11.3149714,9.1536 C9.61165714,9.1536 8.23062857,7.77257143 8.23062857,6.06994286 C8.23062857,4.36662857 9.61165714,2.9856 11.3149714,2.9856 C13.0176,2.9856 14.3986286,4.36662857 14.3986286,6.06994286 L14.3986286,6.06994286 Z" id="Path"></path>
                    <path d="M11.3149714,0 L11.3149714,1.61691429 L11.3149714,0 Z" id="Path"></path>
                    <path d="M11.3136,12.1392 L11.3136,10.5222857 L11.3136,12.1392 Z" id="Path"></path>
                    <path d="M11.3136,0 L11.3136,1.61691429 L11.3136,0 Z" id="Path"></path>
                    <path d="M11.3149714,12.1392 L11.3149714,10.5222857 L11.3149714,12.1392 Z" id="Path"></path>
                    <path d="M17.3842286,6.06994286 L15.7666286,6.06994286 L17.3842286,6.06994286 Z" id="Path"></path>
                    <path d="M5.24434286,6.06925714 L6.86125714,6.06925714 L5.24434286,6.06925714 Z" id="Path"></path>
                    <path d="M17.3842286,6.06925714 L15.7666286,6.06925714 L17.3842286,6.06925714 Z" id="Path"></path>
                    <path d="M5.24434286,6.06994286 L6.86125714,6.06994286 L5.24434286,6.06994286 Z" id="Path"></path>
                    <path d="M15.6068571,1.77805714 L14.4630857,2.92114286 L15.6068571,1.77805714 Z" id="Path"></path>
                    <path d="M7.02171429,10.3611429 L8.16548571,9.21805714 L7.02171429,10.3611429 Z" id="Path"></path>
                    <path d="M15.6061714,1.77737143 L14.4624,2.92114286 L15.6061714,1.77737143 Z" id="Path"></path>
                    <path d="M7.0224,10.3618286 L8.16617143,9.21874286 L7.0224,10.3618286 Z" id="Path"></path>
                    <path d="M15.6061714,10.3618286 L14.4624,9.21874286 L15.6061714,10.3618286 Z" id="Path"></path>
                    <path d="M7.0224,1.77737143 L8.16617143,2.92114286 L7.0224,1.77737143 Z" id="Path"></path>
                    <path d="M15.6068571,10.3611429 L14.4630857,9.21805714 L15.6068571,10.3611429 Z" id="Path"></path>
                    <path d="M7.02171429,1.77805714 L8.16548571,2.92114286 L7.02171429,1.77805714 Z" id="Path"></path>
                    <path d="M20.4857143,6.93051429 L19.3899429,6.93051429 L20.4857143,6.93051429 Z" id="Path"></path>
                    <path d="M3.0672,6.93051429 L1.97142857,6.93051429 L3.0672,6.93051429 Z" id="Path"></path>
                </g>
            </g>
        </g>
    </g>
</svg>