<?xml version="1.0" encoding="UTF-8"?>
<svg width="26px" height="26px" viewBox="0 0 26 26" version="1.1" xmlns="http://www.w3.org/2000/svg" xmlns:xlink="http://www.w3.org/1999/xlink">
    <!-- Generator: Sketch 49.3 (51167) - http://www.bohemiancoding.com/sketch -->
    <title>D/Icon/Features/Split System Aircon</title>
    <desc>Created with Sketch.</desc>
    <defs></defs>
    <g id="Symbols" stroke="none" stroke-width="1" fill="none" fill-rule="evenodd" stroke-linecap="round" stroke-linejoin="round">
        <g id="Icon/Unique/Split-System-Aircon/Grey" transform="translate(-3.000000, -3.000000)" stroke="#A5B2BA">
            <g id="D/Icon/Features/Split-System-Aircon" transform="translate(4.000000, 4.000000)">
                <g id="Split-System-Aircon">
                    <polygon points="0 0 23.6124224 0 23.6124224 7.63253665 0 7.63253665"></polygon>
                    <polygon id="Path" points="0 0 23.6124224 0 23.6124224 4.85986584 0 4.85986584"></polygon>
                    <path d="M2.33619876,2.01278012 L21.2762236,2.01278012 L2.33619876,2.01278012 Z" id="Path"></path>
                    <polygon id="Path" points="5.80150062 10.777282 23.6124224 10.777282 23.6124224 23.6124224 5.80150062 23.6124224"></polygon>
                    <polygon id="Path" points="5.80150062 10.777282 18.8699031 10.777282 18.8699031 23.6124224 5.80150062 23.6124224"></polygon>
                    <path d="M17.1562137,17.1948522 C17.1562137,19.8573317 14.9981814,22.015364 12.3357019,22.015364 C9.67393789,22.015364 7.51590559,19.8573317 7.51590559,17.1948522 C7.51590559,14.5330882 9.67393789,12.3750559 12.3357019,12.3750559 C14.9981814,12.3750559 17.1562137,14.5330882 17.1562137,17.1948522 L17.1562137,17.1948522 Z" id="Path"></path>
                    <path d="M20.4562286,12.3042186 L22.1112447,12.3042186 L20.4562286,12.3042186 Z" id="Path"></path>
                    <path d="M20.4562286,20.890554 L22.1112447,20.890554 L20.4562286,20.890554 Z" id="Path"></path>
                    <path d="M12.3357019,13.9864248 L12.3357019,20.4361938 L12.3357019,13.9864248 Z" id="Path"></path>
                    <path d="M10.1898335,14.8922832 L10.1898335,19.5303354 L10.1898335,14.8922832 Z" id="Path"></path>
                    <path d="M14.4822857,14.8922832 L14.4822857,19.5303354 L14.4822857,14.8922832 Z" id="Path"></path>
                    <path d="M15.5605863,17.2113093 L9.11153292,17.2113093 L15.5605863,17.2113093 Z" id="Path"></path>
                    <path d="M14.6554435,15.0647255 L10.0166758,15.0647255 L14.6554435,15.0647255 Z" id="Path"></path>
                    <path d="M14.6554435,19.3578932 L10.0166758,19.3578932 L14.6554435,19.3578932 Z" id="Path"></path>
                    <path d="M5.80150062,21.6354186 C4.01196522,21.6354186 2.56159006,20.184328 2.56159006,18.3947925 L2.56159006,7.63253665" id="Path"></path>
                </g>
            </g>
        </g>
    </g>
</svg>