<?xml version="1.0" encoding="UTF-8"?>
<svg width="24px" height="24px" viewBox="0 0 24 24" version="1.1" xmlns="http://www.w3.org/2000/svg" xmlns:xlink="http://www.w3.org/1999/xlink">
    <!-- Generator: Sketch 49.3 (51167) - http://www.bohemiancoding.com/sketch -->
    <title>D/Icon/Features/Split System Heating</title>
    <desc>Created with Sketch.</desc>
    <defs></defs>
    <g id="Symbols" stroke="none" stroke-width="1" fill="none" fill-rule="evenodd" stroke-linecap="round" stroke-linejoin="round">
        <g id="Icon/Unique/Split-System-Heating/Grey" transform="translate(-4.000000, -4.000000)" stroke="#A5B2BA">
            <g id="D/Icon/Features/Split-System-Heating" transform="translate(4.000000, 4.000000)">
                <g id="Split-System-Heating">
                    <polygon id="Stroke-1" points="0.685714286 0.685714286 23.3142857 0.685714286 23.3142857 8.00022857 0.685714286 8.00022857"></polygon>
                    <path d="M17.1270857,17.1641143 C17.1270857,19.7156571 15.0589714,21.7837714 12.5074286,21.7837714 C9.95657143,21.7837714 7.88845714,19.7156571 7.88845714,17.1641143 C7.88845714,14.6132571 9.95657143,12.5451429 12.5074286,12.5451429 C15.0589714,12.5451429 17.1270857,14.6132571 17.1270857,17.1641143 L17.1270857,17.1641143 Z" id="Path"></path>
                    <path d="M12.8749714,14.6502857 C12.6452571,15.1995429 12.0514286,15.3538286 12.0514286,16.1513143 C12.0514286,17.1421714 12.9641143,17.1421714 12.9641143,18.1323429 C12.9641143,18.9517714 12.3401143,19.0937143 12.1241143,19.6779429" id="Path"></path>
                    <path d="M10.632,15.6061714 C10.4900571,15.9462857 10.1218286,16.0422857 10.1218286,16.5366857 C10.1218286,17.1504 10.6875429,17.1504 10.6875429,17.7648 C10.6875429,18.2722286 10.3008,18.36 10.1664,18.7227429" id="Path"></path>
                    <path d="M14.8388571,15.6061714 C14.6962286,15.9462857 14.328,16.0422857 14.328,16.5366857 C14.328,17.1504 14.8944,17.1504 14.8944,17.7648 C14.8944,18.2722286 14.5069714,18.36 14.3732571,18.7227429" id="Path"></path>
                    <polygon id="Path" points="0.685714286 0.685714286 23.3142857 0.685714286 23.3142857 5.34308571 0.685714286 5.34308571"></polygon>
                    <path d="M2.92457143,2.61462857 L21.0754286,2.61462857 L2.92457143,2.61462857 Z" id="Path"></path>
                    <polygon id="Path" points="6.24548571 11.0139429 23.3142857 11.0139429 23.3142857 23.3142857 6.24548571 23.3142857"></polygon>
                    <polygon id="Path" points="6.24548571 11.0139429 18.7693714 11.0139429 18.7693714 23.3142857 6.24548571 23.3142857"></polygon>
                    <path d="M20.2896,12.4772571 L21.8756571,12.4772571 L20.2896,12.4772571 Z" id="Path"></path>
                    <path d="M20.2896,20.7058286 L21.8756571,20.7058286 L20.2896,20.7058286 Z" id="Path"></path>
                    <path d="M6.24548571,21.4196571 C4.53051429,21.4196571 3.14057143,20.0290286 3.14057143,18.3140571 L3.14057143,8.00022857" id="Path"></path>
                </g>
            </g>
        </g>
    </g>
</svg>