<?xml version="1.0" encoding="UTF-8"?>
<svg width="26px" height="26px" viewBox="0 0 26 26" version="1.1" xmlns="http://www.w3.org/2000/svg" xmlns:xlink="http://www.w3.org/1999/xlink">
    <!-- Generator: Sketch 49.3 (51167) - http://www.bohemiancoding.com/sketch -->
    <title>D/Icon/Features/Study</title>
    <desc>Created with Sketch.</desc>
    <defs></defs>
    <g id="Symbols" stroke="none" stroke-width="1" fill="none" fill-rule="evenodd" stroke-linecap="round" stroke-linejoin="round">
        <g id="Icon/Unique/Study/Grey" transform="translate(-3.000000, -3.000000)" stroke="#A5B2BA">
            <g id="D/Icon/Features/Study" transform="translate(4.000000, 4.000000)">
                <g id="Study">
                    <polygon points="23.6124224 13.2029217 0 13.2029217 4.2931677 9.6281441 19.3192547 9.6281441"></polygon>
                    <polygon id="Path" points="0 13.2029217 23.6124224 13.2029217 23.6124224 15.4410932 0 15.4410932"></polygon>
                    <polygon id="Path" points="1.26147578 15.4410932 3.08034783 15.4410932 3.08034783 23.6124224 1.26147578 23.6124224"></polygon>
                    <polygon id="Path" points="20.5320745 15.4410932 22.3509466 15.4410932 22.3509466 23.6124224 20.5320745 23.6124224"></polygon>
                    <path d="M7.0808646,3.31933416 C7.0808646,1.48615155 9.19668075,0 11.8062112,0 C14.4157416,0 16.5315578,1.48615155 16.5315578,3.31933416" id="Path"></path>
                    <path d="M7.0808646,3.31933416 L7.0808646,9.6281441 L7.0808646,3.31933416 Z" id="Path"></path>
                    <path d="M16.5315578,3.31933416 L16.5315578,9.6281441 L16.5315578,3.31933416 Z" id="Path"></path>
                    <path d="M10.3572671,5.76572422 L8.96198758,7.15241739 L10.3572671,5.76572422 Z" id="Path"></path>
                    <path d="M10.3479652,7.16171925 L8.97128944,5.75570683 L10.3479652,7.16171925 Z" id="Path"></path>
                    <path d="M14.6504348,5.76572422 L13.2551553,7.15241739 L14.6504348,5.76572422 Z" id="Path"></path>
                    <path d="M14.6411329,7.16171925 L13.2644571,5.75570683 L14.6411329,7.16171925 Z" id="Path"></path>
                    <path d="M12.5038509,2.04927205 L11.1085714,3.43596522 L12.5038509,2.04927205 Z" id="Path"></path>
                    <path d="M12.4945491,3.44598261 L11.1178733,2.03997019 L12.4945491,3.44598261 Z" id="Path"></path>
                    <polygon id="Path" points="10.8445416 15.4410932 12.7678807 15.4410932 12.7678807 19.045923 10.8445416 19.045923"></polygon>
                    <polygon id="Path" points="8.74589814 19.045923 14.8658087 19.045923 14.8658087 20.7581814 8.74589814 20.7581814"></polygon>
                </g>
            </g>
        </g>
    </g>
</svg>