<?xml version="1.0" encoding="UTF-8"?>
<svg width="26px" height="24px" viewBox="0 0 26 24" version="1.1" xmlns="http://www.w3.org/2000/svg" xmlns:xlink="http://www.w3.org/1999/xlink">
    <!-- Generator: Sketch 49.3 (51167) - http://www.bohemiancoding.com/sketch -->
    <title>D/Icon/Features/Workshop</title>
    <desc>Created with Sketch.</desc>
    <defs></defs>
    <g id="Symbols" stroke="none" stroke-width="1" fill="none" fill-rule="evenodd" stroke-linecap="round" stroke-linejoin="round">
        <g id="Icon/Unique/Workshop/Grey" transform="translate(-3.000000, -4.000000)" stroke="#A5B2BA">
            <g id="D/Icon/Features/Workshop" transform="translate(4.000000, 4.000000)">
                <g id="Workshop">
                    <path d="M18.8995972,16.064 L21.8181818,16.064 L24,20.6952727 L0,20.6952727 L2.18181818,16.064 L6.73101135,16.064"></path>
                    <polygon id="Path" points="0 20.6952727 24 20.6952727 24 23 0 23"></polygon>
                    <path d="M6.05236364,2.15563636 C6.67127273,2.86836364 8.49309091,2.86836364 9.11272727,2.15563636 C9.11272727,2.15563636 11.3541818,2.27636364 12.4669091,3.33672727 C13.9301818,4.73090909 13.8298182,5.89381818 13.6603636,5.99127273 C13.3090909,6.19345455 12.4218182,4.08363636 9.51490909,4.24581818 L9.11272727,5.02836364" id="Path"></path>
                    <path d="M6.05236364,5.02836364 C6.67127273,4.31563636 8.49309091,4.31563636 9.11272727,5.02836364" id="Path"></path>
                    <polyline id="Path" points="6.05236364 2.15563636 3.04654545 2.15563636 3.04654545 5.02836364 6.05236364 5.02836364"></polyline>
                    <polyline id="Path" points="6.05236364 2.15563636 6.05236364 0.868363636 9.11272727 0.868363636 9.11272727 2.15563636"></polyline>
                    <polyline id="Path" points="9.11272727 5.02836364 8.33309091 6.61163636 8.33309091 18.7876364 6.83127273 18.7876364 6.83127273 6.61163636 6.05236364 5.02836364"></polyline>
                    <path d="M18.7709091,11.4029091 C18.0581818,10.8625455 18.0581818,9.27127273 18.7709091,8.73090909" id="Path"></path>
                    <path d="M15.896,11.4029091 C16.6094545,10.8625455 16.6094545,9.27127273 15.896,8.73090909" id="Path"></path>
                    <path d="M15.896,8.73090909 C16.6909091,7.936 17.9767273,7.936 18.7709091,8.73090909" id="Path"></path>
                    <path d="M18.7709091,18.2043636 C17.9767273,18.9992727 16.6909091,18.9992727 15.896,18.2043636" id="Path"></path>
                    <path d="M15.896,11.4029091 L15.896,18.2043636 L15.896,11.4029091 Z" id="Path"></path>
                    <path d="M18.7709091,11.4029091 L18.7709091,18.2043636 L18.7709091,11.4029091 Z" id="Path"></path>
                    <path d="M17.3338182,8.13454545 L17.3338182,0.868363636 L17.3338182,8.13454545 Z" id="Path"></path>
                    <path d="M8.71636364,16.064 L15.4163636,16.064 L8.71636364,16.064 Z" id="Path"></path>
                </g>
            </g>
        </g>
    </g>
</svg>