<?xml version="1.0" encoding="UTF-8"?>
<svg width="32px" height="32px" viewBox="0 0 32 32" version="1.1" xmlns="http://www.w3.org/2000/svg" xmlns:xlink="http://www.w3.org/1999/xlink">
    <!-- Generator: Sketch 49.3 (51167) - http://www.bohemiancoding.com/sketch -->
    <title>Icon/Map/Draw/Grey</title>
    <desc>Created with Sketch.</desc>
    <defs></defs>
    <g id="Icon/Map/Draw/Grey" stroke="none" stroke-width="1" fill="none" fill-rule="evenodd" stroke-linecap="round">
        <g transform="translate(1.000000, 1.000000)" stroke="#3C515B">
            <path d="M11.3690467,1.06067401 C1.07374685,-0.662962403 -5.13250324,12.0658852 8.23193376,14.2278024 C11.8383786,14.7717479 13.8317869,12.5029491 12.4174802,9.32912099 C10.1479488,5.35377879 5.61816381,1.71950167 1.63403318,1.71950167" id="Path-3-Copy" transform="translate(6.735512, 7.604624) scale(1, -1) translate(-6.735512, -7.604624) "></path>
            <g id="Group" transform="translate(9.923077, 8.888889)">
                <path d="M13.992549,7.3991564 C13.992549,7.31235085 12.9350581,4.81756953 12.1972727,4.29497613 C11.4594873,3.77238272 10.0384615,4.87379286 10.0384615,4.87379286" id="Path-5"></path>
                <path d="M11.2364925,7.69042973 C11.2364925,7.60362418 9.8923945,4.91983733 9.15460909,4.39724392 C8.41682369,3.87465052 7.10628803,4.8891873 7.10628803,4.8891873" id="Path-5"></path>
                <path d="M8.36164034,8.5671658 C8.24093863,8.43858507 5.55962118,2.57115559 4.89914177,1.52472606 C4.23866236,0.478296534 4.03469146,0.0539821979 3.15356212,0.315755208 C2.27243278,0.577528219 1.93803527,0.773451109 1.93803525,1.8732368 C1.93803523,2.97302249 7.72749707,13.6794032 7.59923847,13.7761095 C7.47097986,13.8728158 6.43814491,12.8987291 5.40203155,12.3527013 C4.76218511,12.0155047 3.41332554,11.2744917 2.11292678,11.4310027 C1.30756946,11.5279323 0.436445966,12.3609072 0.949683557,13.0683046 C4.93331677,15.5840381 6.81968076,17.4424908 7.88530086,18.0139838 C8.95092095,18.5854768 10.0265035,18.742306 10.8891604,19.4079596 C11.7518174,20.0736131 12.0814728,20.858087 12.0814728,20.858087" id="Path-6"></path>
                <path d="M12.2367577,20.8227537 C12.2367577,20.8227537 19.0371047,17.7392578 19.2143789,17.6118976 C19.3916532,17.4845374 18.6998646,16.7808579 18.3764789,15.0927054 C18.0530932,13.404553 18.1059383,13.2612438 17.9588224,11.9217256 C17.8117065,10.5822074 16.7669712,7.99357479 16.2526597,7.08591031 C15.7383483,6.17824584 15.0318099,5.13288998 14.5393489,4.94710286 C14.0468879,4.76131574 12.948714,5.02305773 12.948714,5.02305773" id="Path-4"></path>
            </g>
        </g>
    </g>
</svg>