<?xml version="1.0" encoding="UTF-8"?>
<svg width="32px" height="32px" viewBox="0 0 32 32" version="1.1" xmlns="http://www.w3.org/2000/svg" xmlns:xlink="http://www.w3.org/1999/xlink">
    <!-- Generator: Sketch 49.3 (51167) - http://www.bohemiancoding.com/sketch -->
    <title>Icon/Map/Earth/Grey</title>
    <desc>Created with Sketch.</desc>
    <defs></defs>
    <g id="Icon/Map/Earth/Grey" stroke="none" stroke-width="1" fill="none" fill-rule="evenodd">
        <g transform="translate(4.000000, 4.000000)" stroke="#3C515B">
            <circle id="Oval" cx="12" cy="12" r="11.5"></circle>
            <path d="M12.2137272,17.0604058 C12.8552674,16.8434579 13.0961792,17.2523578 13.2754033,17.6292231 C13.4546274,18.0060885 13.696547,18.0711137 13.9371499,18.0711136 C14.1777528,18.0711136 13.690318,19.1815921 13.1073206,18.9741843 C12.5243233,18.7667766 11.572187,17.2773538 12.2137272,17.0604058 Z" id="Path-8" stroke-width="0.889999986"></path>
            <path d="M9.10939846,5.85247803 C10.8705679,5.85247803 10.4875113,7.43017578 10.7618032,7.93951416 C11.0360952,8.44885254 11.3174063,8.50671387 11.9771963,8.50671387 C12.6369863,8.50671387 13.3054434,6.82244873 13.4061514,6.47869873 C13.5068594,6.13494873 13.7140127,5 14.1897818,5 C14.6655508,5 18.7481924,8.32318115 18.5120474,11.44104 C18.2759024,14.5588989 15.3670279,17.3161621 14.6331411,17.1928711 C13.8992544,17.0695801 13.5676504,14.6035156 10.8665396,14.4877319 C8.16542873,14.3719482 8.67824612,15.7997437 7.22029934,15.6567993 C5.76235256,15.513855 4.80855618,12.6269531 5.0325552,10.4345703 C5.25655422,8.2421875 7.34822907,5.85247803 9.10939846,5.85247803 Z" id="Path-7"></path>
        </g>
    </g>
</svg>